<svg width="512" height="179" viewBox="0 0 512 179" xmlns="http://www.w3.org/2000/svg" preserveAspectRatio="xMidYMid"><defs><linearGradient id="a" gradientUnits="userSpaceOnUse" x1="27.5" y1="3" x2="152" y2="63.5" gradientTransform="translate(-4.833 -4.412) scale(1.20818)"><stop offset=".1" stop-color="#76b3e1"/><stop offset=".3" stop-color="#dcf2fd"/><stop offset="1" stop-color="#76b3e1"/></linearGradient><linearGradient id="b" gradientUnits="userSpaceOnUse" x1="95.8" y1="32.6" x2="74" y2="105.2" gradientTransform="translate(-4.833 -4.412) scale(1.20818)"><stop offset="0" stop-color="#76b3e1"/><stop offset=".5" stop-color="#4377bb"/><stop offset="1" stop-color="#1f3b77"/></linearGradient><linearGradient id="c" gradientUnits="userSpaceOnUse" x1="18.4" y1="64.2" x2="144.3" y2="149.8" gradientTransform="translate(-4.833 -4.412) scale(1.20818)"><stop offset="0" stop-color="#315aa9"/><stop offset=".5" stop-color="#518ac8"/><stop offset="1" stop-color="#315aa9"/></linearGradient><linearGradient id="d" gradientUnits="userSpaceOnUse" x1="75.2" y1="74.5" x2="24.4" y2="260.8" gradientTransform="translate(-4.833 -4.412) scale(1.20818)"><stop offset="0" stop-color="#4377bb"/><stop offset=".5" stop-color="#1a336b"/><stop offset="1" stop-color="#1a336b"/></linearGradient></defs><path d="M249.363 100.364a13.115 13.115 0 008.853 3.716c3.716 0 6.776-2.186 6.776-5.902 0-8.525-16.94-6.448-16.94-16.94 0-4.918 4.371-9.071 10.6-9.071a13.113 13.113 0 019.072 3.278l-1.64 2.842a11.345 11.345 0 00-7.431-2.951c-4.372 0-7.104 2.842-7.214 5.793 0 8.087 16.94 5.792 16.94 16.94 0 5.027-3.934 9.18-10.273 9.18a14.602 14.602 0 01-10.71-4.371l1.967-2.514zm53.663-27.979a17.192 17.192 0 0117.268 17.378 17.487 17.487 0 01-17.268 17.705h-.11a17.487 17.487 0 01-17.268-17.705v-.11a17.192 17.192 0 0117.378-17.268m-.11 32.023c7.844-.18 14.058-6.682 13.88-14.525v-.12c0-8.088-6.12-14.318-13.77-14.318a13.902 13.902 0 00-13.88 14.208c0 8.307 6.12 14.646 13.77 14.755m37.05-31.367h3.28l-.11 30.93h15.739v2.95h-19.127l.219-33.88zm37.051.11h3.279l-.11 33.99h-3.278l.11-33.99zm25.356 0h10.93c10.164 0 17.05 6.229 17.05 17.049s-6.886 16.94-17.05 16.94h-10.93V73.15zm10.492 31.038c8.307 0 13.88-4.918 13.99-13.99.11-9.07-5.574-13.989-13.88-13.989h-7.323l-.11 27.98h7.323zm45.753 2.947l.336.004a11.224 11.224 0 007.716-2.754 9.836 9.836 0 003.126-7.76V73.555h-6.83v22.569a4.59 4.59 0 01-1.094 3.278 3.946 3.946 0 01-2.785 1.176l-.242-.006c-2.142 0-3.705-1.257-4.689-3.77l-5.77 3.223c1.85 4.633 5.26 7.004 10.232 7.111zm40.81.085l.467-.004c3.793 0 6.766-.94 8.897-2.83a9.432 9.432 0 003.202-7.422 7.749 7.749 0 00-2.732-6.197c-1.836-1.574-4.776-2.929-8.82-4.087a12.88 12.88 0 01-4.11-1.716 2.809 2.809 0 01-1.202-2.35 2.95 2.95 0 011.202-2.46 5.027 5.027 0 013.18-.928 6.197 6.197 0 016.241 4.066l5.65-3.093a11.06 11.06 0 00-4.447-5.301 13.388 13.388 0 00-7.148-1.858 12.142 12.142 0 00-7.842 2.597l-.3.245a8.864 8.864 0 00-3.379 6.85l.001.308a8.197 8.197 0 002.313 5.91l.223.222c1.523 1.53 4.208 2.874 8.055 4.032 1.736.416 3.4 1.086 4.94 1.99a2.547 2.547 0 011.3 2.284 2.995 2.995 0 01-1.41 2.524 6.164 6.164 0 01-3.606.995 7.65 7.65 0 01-7.213-4.623l-5.902 3.05a11.858 11.858 0 004.907 5.715 15.017 15.017 0 007.533 2.081z" fill="#58595B"/><path d="M192.1 37.874S128.067-9.244 78.531 1.629l-3.624 1.208c-7.249 2.417-13.29 6.041-16.915 10.874l-2.416 3.624-18.123 31.413 31.413 6.041c13.29 8.457 30.204 12.082 45.911 8.457l55.576 10.874L192.1 37.874z" fill="#76b3e1"/><path d="M192.1 37.874S128.067-9.244 78.531 1.629l-3.624 1.208c-7.249 2.417-13.29 6.041-16.915 10.874l-2.416 3.624-18.123 31.413 31.413 6.041c13.29 8.457 30.204 12.082 45.911 8.457l55.576 10.874L192.1 37.874z" opacity=".3" fill="url(#a)"/><path d="M57.992 37.874l-4.832 1.209c-20.539 6.04-26.58 25.371-15.707 42.286 12.082 15.706 37.454 24.163 57.993 18.122l74.907-25.371S106.319 27.001 57.992 37.874z" fill="#518ac8"/><path d="M57.992 37.874l-4.832 1.209c-20.539 6.04-26.58 25.371-15.707 42.286 12.082 15.706 37.454 24.163 57.993 18.122l74.907-25.371S106.319 27.001 57.992 37.874z" opacity=".3" fill="url(#b)"/><path d="M157.063 92.242C143.226 74.956 120.288 67.788 99.07 74.12L24.164 98.283 0 140.569l135.316 22.956 24.163-43.495c4.833-8.457 3.625-18.122-2.416-27.788z" fill="url(#c)"/><path d="M132.899 134.528c-13.837-17.286-36.774-24.454-57.992-18.122L0 140.569s64.033 48.327 113.569 36.246l3.624-1.209c20.539-6.04 27.788-25.371 15.706-41.078z" fill="url(#d)"/></svg>