<svg xmlns="http://www.w3.org/2000/svg" viewBox="0 0 64 64" width="512" height="512"><path d="M52.935 21.132v-2.264l-1.827-.806a8.58 8.58 0 00-.428-1.369l1.007-1.737a10.214 10.214 0 00-1.31-1.832l-1.935.443a8.35 8.35 0 00-1.133-.839l-.185-2.02A9.76 9.76 0 0045.02 10l-1.318 1.529h-1.404L40.98 10a9.76 9.76 0 00-2.104.707l-.185 2.021a8.365 8.365 0 00-1.133.839l-1.934-.443a10.218 10.218 0 00-1.311 1.832l1.007 1.737a8.58 8.58 0 00-.428 1.369l-1.827.806v2.264l1.827.806a8.588 8.588 0 00.428 1.369l-1.007 1.737a10.217 10.217 0 001.31 1.832l1.935-.443a8.344 8.344 0 001.133.839l.185 2.02A9.764 9.764 0 0040.98 30l1.318-1.529h1.404L45.02 30a9.768 9.768 0 002.104-.707l.185-2.021a8.362 8.362 0 001.133-.839l1.934.443a10.217 10.217 0 001.311-1.832l-1.007-1.737a8.577 8.577 0 00.428-1.369zM43 24a4 4 0 114-4 4 4 0 01-4 4z" fill="#92b1f9"/><circle cx="29" cy="20" fill="#f73445" r="18"/><circle cx="29" cy="20" fill="#dfdeed" r="14"/><path d="M61.935 53.132v-2.264l-1.827-.806a8.58 8.58 0 00-.428-1.369l1.007-1.737a10.214 10.214 0 00-1.31-1.832l-1.935.443a8.35 8.35 0 00-1.133-.839l-.185-2.02A9.76 9.76 0 0054.02 42l-1.318 1.529h-1.404L49.98 42a9.76 9.76 0 00-2.104.707l-.185 2.021a8.365 8.365 0 00-1.133.839l-1.934-.443a10.218 10.218 0 00-1.311 1.832l1.007 1.737a8.58 8.58 0 00-.428 1.369l-1.827.806v2.264l1.827.806a8.588 8.588 0 00.428 1.369l-1.007 1.737a10.217 10.217 0 001.31 1.832l1.935-.443a8.344 8.344 0 001.133.839l.185 2.02A9.764 9.764 0 0049.98 62l1.318-1.529h1.404L54.02 62a9.768 9.768 0 002.104-.707l.185-2.021a8.362 8.362 0 001.133-.839l1.934.443a10.217 10.217 0 001.311-1.832l-1.007-1.737a8.577 8.577 0 00.428-1.369zM52 56a4 4 0 114-4 4 4 0 01-4 4z" fill="#2c72ff"/><path d="M32 7a17.038 17.038 0 012.742.241 13.93 13.93 0 00-19.599 14.656A16.993 16.993 0 0132 7z" fill="#ededf4"/><path d="M37.17 8.647c-.072.024-.146.042-.217.068l-.487-.544a13.955 13.955 0 00-1.453-.8 14.227 14.227 0 00-2.43 1.46l.663 2.019a12.064 12.064 0 00-1.396 1.396l-2.018-.663a13.963 13.963 0 00-1.717 2.936l1.6 1.433a11.88 11.88 0 00-.513 1.904l-2.088.439v3.41l2.088.44a11.877 11.877 0 00.513 1.902l-1.6 1.433a13.966 13.966 0 001.716 2.937l2.019-.663a12.064 12.064 0 001.396 1.396l-.663 2.018a14.22 14.22 0 002.43 1.46 13.97 13.97 0 001.452-.799l.488-.544c.07.026.145.044.216.068a13.969 13.969 0 000-22.706z" fill="#92b1f9"/><path d="M43 20a13.925 13.925 0 00-2.501-7.975 7.99 7.99 0 000 15.95A13.925 13.925 0 0043 20z" fill="#fed966"/><path d="M14.613 35.291L2 51l5 4 12.799-15.938z" fill="#f73445"/><path d="M14.503 29.651L11 34l11 8 3.479-4.349z" fill="#e20e28"/><path d="M52 46a6 6 0 106 6 6 6 0 00-6-6zm0 10a4 4 0 114-4 4 4 0 01-4 4z" fill="#7ca4dd"/></svg>