<svg version="1.1" id="Capa_1" xmlns="http://www.w3.org/2000/svg" x="0" y="0" viewBox="0 0 512.1 512.1" xml:space="preserve"><style>.st1{fill:#a0aec0}.st2{fill:#667eea}</style><path d="M469.6 246.6c-15.4 83.9-46.7 123.9-58.2 151.5l.1.3c0 26.5 31.5 105.9 44.1 114.8H235c-1.4-18.3-7.4-35.9-17.5-51.2l-.4-1c-38.5 13.5-81.4 20.3-97 15.2-27-8.8-18-26.5-18-44.1s-9-8.8-18-17.7c-9-8.8 9-17.7 9-17.7-18 0-18 0-18-26.5 0-4.8-1.9-9.3-5.3-12.6-3.4-3.3-8-5.1-12.8-5-44.9-8.8 16.9-46.9 18-88.3.2-8.9-.6-17.9-2.6-26.6-1.3-6.6-3.1-12.7-4.6-19-1.7-6.7-2.9-13.6-3.4-20.6-.6-14.7 1-29.4 4.9-43.5C87.8 80.1 145.6 28.2 219.5 8.4 274.6-6.3 333.2 1.1 383 28.9c72.4 43.3 101.4 137.9 86.6 217.7z" fill="#c3dafe" transform="translate(-1 -1)"/><path class="st1" d="M231.9 460.2c-4.3 0-8-3.1-8.7-7.4-.7-4.2 1.7-8.4 5.8-9.8 29.5-10.3 51.7-23 60.8-34.8 1.9-2.5 5-3.8 8.2-3.4 3.1.4 5.8 2.5 7 5.4s.8 6.2-1.2 8.8c-14.5 18.9-45.5 32.6-69 40.7-.9.3-1.9.5-2.9.5zm-94.4-251.7c-.6 2.3-2.2 4.2-4.2 5.3-2.1 1.1-4.5 1.4-6.7.7-4.5-1.5-9.3-1.9-13.9-1-14.9 4.9-28.5 13.1-39.8 24-.1.1-.2.2-.3.2-1.3-6.6-3.1-12.7-4.6-19 11.7-10.6 25.6-18.3 40.8-22.5 7.6-1.5 15.4-1 22.8 1.3 4.6 1.4 7.3 6.3 5.9 11zm237.1 61.6l-30.4 24.3c-2.5 2-3.7 5.1-3.3 8.2.5 3.1 2.6 5.8 5.5 6.9 3 1.1 6.3.6 8.8-1.4l30.4-24.3c2.5-2 3.7-5.1 3.3-8.2-.5-3.1-2.6-5.8-5.5-6.9-3-1.1-6.3-.6-8.8 1.4zm53.7-105.2l-18.6-37.2c-2.2-4.4-7.5-6.1-11.8-3.9-1.4.8-2.6 1.9-3.4 3.3-2-3.1-6-4.5-9.5-3.2v-.9c-.5-2.3-1.8-4.3-3.8-5.6s-4.3-1.8-6.6-1.3l-44.1 8.8c-4.4.9-7.5 5-7 9.5.4 4.5 4.2 8 8.8 8 .6 0 1.2-.1 1.7-.2l43.5-8.7-17.2 43-40.3-32.2c-2-1.6-4.6-2.2-7.1-1.8s-4.7 2-6 4.1l-26.5 44.1c-.3.6-.5 1.2-.6 1.8L259 146.1c-1-2.1-2.7-3.8-4.9-4.6-2.2-.8-4.6-.8-6.8.2-.6.3-1.1.7-1.6 1.1-2.7-.7-5.5-.1-7.6 1.7l-53 44.1c-1.5 1.3-2.6 3.2-2.9 5.2L163.6 148c-1.8-4.5-7-6.7-11.5-4.9-4.5 1.8-6.7 7-4.9 11.5l18.6 46c.9 2.2 2.6 3.9 4.7 4.8s4.6.9 6.8 0c2.8-1.2 4.8-3.8 5.3-6.8.3.9.8 1.7 1.3 2.5 3.1 3.7 8.7 4.3 12.4 1.1l49.7-41.4 17.7 39.7c.9 2.1 2.7 3.8 4.9 4.7 2.2.8 4.6.8 6.8-.2 2.3-1 4-3 4.7-5.4.7 1.4 1.8 2.6 3.1 3.4 4.2 2.5 9.6 1.2 12.1-3l21.3-35.5 36.3 29c2.1 1.6 4.7 2.2 7.3 1.6.5.4 1 .7 1.5 1 2.2.9 4.6.8 6.8-.1s3.9-2.7 4.7-4.8l21.5-53.6 17.7 35.3c1.4 2.8 4.2 4.7 7.4 4.9s6.2-1.3 7.9-4c1.8-2.7 2-6.1.6-8.9zM294.4 224c-2.7-4.1-8.2-5.2-12.2-2.5s-5.2 8.2-2.5 12.2l37.3 56.7c2.7 4.1 8.2 5.2 12.2 2.5 4.1-2.7 5.2-8.2 2.5-12.2L294.4 224z" transform="translate(-1 -1)"/><path class="st1" d="M400.8 184.9L373 196c-4.5 1.8-6.7 6.9-4.9 11.5.1.3.3.6.5.8-.9.2-1.8.7-2.7 1.2-1.9 1.4-3.2 3.4-3.5 5.7-.4 2.3.2 4.7 1.6 6.6l22.9 31.7c1.8 2.6 4.9 3.9 8 3.6 3.1-.3 5.9-2.3 7.2-5.2s1-6.2-.9-8.8l-22.1-30.7c.2-.1.4 0 .6-.1l27.8-11.1c4.5-1.8 6.7-6.9 4.9-11.5-2-4.4-7.1-6.6-11.6-4.8zm-115-122.2l35.3 8.8c4.7 1.1 9.5-1.7 10.7-6.4s-1.7-9.5-6.4-10.7l-35.3-8.8c-4.7-1.1-9.5 1.7-10.7 6.4-1.1 4.7 1.7 9.5 6.4 10.7zm-77.3 9.1c.6 0 1.2-.1 1.7-.2l44.1-8.8c3.1-.6 5.6-2.8 6.7-5.8s.4-6.3-1.7-8.7-5.3-3.4-8.4-2.8l-44.1 8.8c-4.4.9-7.5 5-7 9.5.4 4.5 4.2 8 8.7 8zm-53 52.9c2.8 0 5.4-1.3 7.1-3.5L186 90c1.9-2.5 2.3-5.9 1.1-8.8s-3.9-4.9-7.1-5.3c-3.1-.4-6.2 1-8.1 3.5l-23.4 31.2c-2 2.7-2.3 6.3-.8 9.2 1.4 3 4.5 4.9 7.8 4.9zm106 79.5h-61.8c-4.9 0-8.8 4-8.8 8.8s4 8.8 8.8 8.8h61.8c4.9 0 8.8-4 8.8-8.8s-3.9-8.8-8.8-8.8zm113.2-92.8c2.4 2 5.7 2.6 8.7 1.5s5.1-3.7 5.6-6.8-.6-6.3-3.1-8.3L360 76.3c-2.4-2-5.7-2.6-8.7-1.5s-5.1 3.7-5.6 6.8.6 6.3 3.1 8.3l25.9 21.5zm-201.5 13.3c-4.9 0-8.8 4-8.8 8.8 0 4.9 4 8.8 8.8 8.8h53c4.9 0 8.8-4 8.8-8.8 0-4.9-4-8.8-8.8-8.8h-53zm88.3 0c-4.9 0-8.8 4-8.8 8.8 0 4.9 4 8.8 8.8 8.8h35.3c4.9 0 8.8-4 8.8-8.8 0-4.9-4-8.8-8.8-8.8h-35.3zm37 97l44.1-8.8c4.8-1 7.9-5.6 6.9-10.4-1-4.8-5.6-7.9-10.4-6.9l-44.1 8.8c-4.4.9-7.5 5-7 9.5.4 4.5 4.2 8 8.8 8 .6-.1 1.1-.1 1.7-.2z" transform="translate(-1 -1)"/><path class="st1" d="M194.5 94.7l44.6 28.6.1.1.1.1c.4.2.9.4 1.4.6.3.1.5.3.8.3.8.2 1.6.3 2.4.3.7 0 1.5-.1 2.2-.3.2-.1.5-.2.7-.3.5-.1.9-.3 1.4-.5.3-.2.5-.3.7-.5.4-.2.7-.5 1.1-.8.2-.2.4-.5.6-.8.3-.3.5-.6.8-.9v-.1l.1-.1L272.1 86l36.1 36.1c2.2 2.3 5.5 3.2 8.6 2.3 3.1-.8 5.5-3.2 6.3-6.3.8-3.1-.1-6.3-2.3-8.6l-44.1-44.1c-1.9-1.9-4.6-2.9-7.3-2.5-2.7.3-5.1 1.9-6.5 4.2l-21.8 36.3L204 79.9c-4.1-2.6-9.6-1.4-12.2 2.7s-1.4 9.5 2.7 12.1z" transform="translate(-1 -1)"/><g transform="translate(-1 -1)"><circle class="st2" cx="270.3" cy="54.1" r="26.5"/><circle class="st2" cx="243.8" cy="133.6" r="26.5"/><circle class="st2" cx="314.4" cy="133.6" r="26.5"/><circle class="st2" cx="358.6" cy="204.2" r="26.5"/><circle class="st2" cx="190.9" cy="71.8" r="26.5"/><circle class="st2" cx="155.5" cy="133.6" r="26.5"/><circle class="st2" cx="182" cy="213" r="26.5"/><circle class="st2" cx="279.1" cy="213" r="26.5"/><circle class="st2" cx="420.4" cy="186.5" r="26.5"/><circle class="st2" cx="393.9" cy="115.9" r="26.5"/><circle class="st2" cx="340.9" cy="71.8" r="26.5"/><circle class="st2" cx="332.1" cy="301.3" r="26.5"/><circle class="st2" cx="393.9" cy="266" r="26.5"/></g></svg>