<svg height="512" viewBox="0 0 512 512" width="512" xmlns="http://www.w3.org/2000/svg"><g fill="#42434d"><path d="M475.657 278.657a7.999 7.999 0 000-11.314 8.001 8.001 0 00-11.313 0L438 293.686V264h32a8 8 0 000-16h-32v-29.686l26.343 26.343a8 8 0 0011.313-11.314L438 195.686V99a8 8 0 00-16 0v80.686L382.814 140.5l35.843-35.843a7.999 7.999 0 000-11.314 8.001 8.001 0 00-11.313 0L371.5 129.186 332.314 90H413a8 8 0 000-16h-96.686l-37.657-37.657a8.001 8.001 0 00-11.313 0 7.999 7.999 0 000 11.314L293.686 74H264V42a8 8 0 00-16 0v32h-29.686l26.343-26.343a7.999 7.999 0 000-11.314 8.001 8.001 0 00-11.313 0L195.686 74H99a8 8 0 000 16h80.686L140.5 129.186l-35.843-35.843a8.001 8.001 0 00-11.313 0 7.999 7.999 0 000 11.314l35.843 35.843L90 179.686V99a8 8 0 00-16 0v96.686l-37.657 37.657a8 8 0 0011.313 11.314L74 218.314V248H42a8 8 0 000 16h32v29.686l-26.343-26.343a8.001 8.001 0 00-11.313 0 7.999 7.999 0 000 11.314L74 316.314V413a8 8 0 0016 0v-80.686l39.186 39.186-35.843 35.843a8 8 0 0011.313 11.314l35.843-35.843L179.686 422H99a8 8 0 000 16h96.686l37.657 37.657A7.974 7.974 0 00239 478c7.064 0 10.711-8.602 5.657-13.657L218.314 438H248v32a8 8 0 0016 0v-32h29.686l-26.343 26.343C262.289 469.398 265.936 478 273 478a7.976 7.976 0 005.657-2.343L316.314 438H413a8 8 0 000-16h-80.686l39.186-39.186 35.843 35.843a8 8 0 0011.313-11.314L382.814 371.5 422 332.314V413a8 8 0 0016 0v-96.686zM371.5 360.186l-73.083-73.083a8.001 8.001 0 00-11.313 0 7.999 7.999 0 000 11.314l73.083 73.083-50.5 50.5H264V320a8 8 0 00-16 0v102h-45.686l-50.5-50.5 72.843-72.843a7.999 7.999 0 000-11.314 8.001 8.001 0 00-11.313 0L140.5 360.186l-50.5-50.5V264h112.35a8 8 0 000-16H90v-45.686l50.5-50.5 72.843 72.843A7.974 7.974 0 00219 227c7.063 0 10.712-8.601 5.657-13.657L151.814 140.5l50.5-50.5H248v102a8 8 0 0016 0V90h45.686l50.5 50.5-73.083 73.083c-5.055 5.056-1.406 13.657 5.657 13.657a7.976 7.976 0 005.657-2.343l73.083-73.083 50.5 50.5V248H309.65a8 8 0 000 16H422v45.686z"/><path d="M22.802 246.692a8 8 0 009.89-5.494l40-140a8 8 0 00-15.385-4.397l-40 140a8.001 8.001 0 005.495 9.891zm76.194-173.69c1.739 0-7.468 2.453 142.202-40.31a8 8 0 10-4.395-15.385l-140 40c-8.867 2.534-7.05 15.695 2.193 15.695zm171.806-40.31c149.919 42.834 140.545 40.31 142.202 40.31 9.222 0 11.075-13.157 2.194-15.694l-140-40a7.999 7.999 0 00-9.89 5.494 8 8 0 005.494 9.89zm208.51 207.649a8 8 0 0015.377-4.421l-40-139.13a8 8 0 10-15.377 4.421zm-446.62 30.461c-1.214-4.248-5.643-6.71-9.89-5.494a8.002 8.002 0 00-5.495 9.891l40 140a8.003 8.003 0 007.688 5.804c5.319 0 9.154-5.096 7.696-10.2zm208.506 208.506l-140-40a7.999 7.999 0 00-9.89 5.494 8.002 8.002 0 005.495 9.891l140 40a8 8 0 004.395-15.385zm169.604-40l-140 40a8 8 0 004.395 15.385l140-40a8.002 8.002 0 005.495-9.891 7.999 7.999 0 00-9.89-5.494zm78.408-173.117c-4.245-1.223-8.678 1.232-9.899 5.478l-40 139.12c-1.47 5.115 2.377 10.213 7.692 10.213a8.005 8.005 0 007.685-5.791l40-139.12a8 8 0 00-5.478-9.9z"/></g><path d="M319.65 223.868v64.265c0 2.857-1.527 5.5-4.001 6.929-15.516 8.963-8.138 4.702-55.648 32.129a8.004 8.004 0 01-8.002 0c-47.301-27.316-40.313-23.281-55.646-32.13a8.003 8.003 0 01-4.003-6.93v-64.26a8.003 8.003 0 014.004-6.93c15.446-8.913 8.148-4.7 55.645-32.129a8.004 8.004 0 018.002-.001c47.516 27.43 40.135 23.168 55.648 32.129a8.002 8.002 0 014.001 6.928z" fill="#8ab2ff"/><path d="M319.65 288.13c0 2.86-1.53 5.5-4 6.93-60.535 34.916-56.622 33.2-59.65 33.2V256.5l62.78-36.25c1.233 2.379.87-1.945.87 67.88z" fill="#7da7fa"/><path d="M318.78 220.25L256 256.5l-62.78-36.25c1.478-2.914-2.001-.367 58.79-35.45a8.001 8.001 0 017.99.01c60.394 34.786 57.306 32.534 58.78 35.44z" fill="#a6c4ff"/><path d="M496 231h-18c-8.822 0-16 7.178-16 16v18c0 8.822 7.178 16 16 16h18c8.822 0 16-7.178 16-16v-18c0-8.822-7.178-16-16-16zM265 0h-18c-8.822 0-16 7.178-16 16v18c0 8.822 7.178 16 16 16h18c8.822 0 16-7.178 16-16V16c0-8.822-7.178-16-16-16zM34 231H16c-8.822 0-16 7.178-16 16v18c0 8.822 7.178 16 16 16h18c8.822 0 16-7.178 16-16v-18c0-8.822-7.178-16-16-16zm231 231h-18c-8.822 0-16 7.178-16 16v18c0 8.822 7.178 16 16 16h18c8.822 0 16-7.178 16-16v-18c0-8.822-7.178-16-16-16zM91 57H73c-8.822 0-16 7.178-16 16v18c0 8.822 7.178 16 16 16h18c8.822 0 16-7.178 16-16V73c0-8.822-7.178-16-16-16zm0 348H73c-8.822 0-16 7.178-16 16v18c0 8.822 7.178 16 16 16h18c8.822 0 16-7.178 16-16v-18c0-8.822-7.178-16-16-16zM439 57h-18c-8.822 0-16 7.178-16 16v18c0 8.822 7.178 16 16 16h18c8.822 0 16-7.178 16-16V73c0-8.822-7.178-16-16-16zm0 348h-18c-8.822 0-16 7.178-16 16v18c0 8.822 7.178 16 16 16h18c8.822 0 16-7.178 16-16v-18c0-8.822-7.178-16-16-16z" fill="#8ab2ff"/></svg>