<svg version="1.1" id="Layer_1" xmlns="http://www.w3.org/2000/svg" x="0" y="0" viewBox="0 0 512 512" xml:space="preserve"><style>.st1{fill:#a3bffa}.st2{fill:#78b9eb}.st4{fill:#ff5023}</style><g id="Circuit-technology-electronics"><path d="M32 24h464v464H32V24z" fill="#667eea"/><path class="st1" d="M312 432h-26.2c-4.4-7.7-14.2-10.3-21.9-5.9s-10.3 14.2-5.9 21.9c4.4 7.7 14.2 10.3 21.9 5.9 2.4-1.4 4.5-3.4 5.9-5.9H312v-16zm136-8c-5.7 0-10.9 3.1-13.8 8H408v16h26.2c4.4 7.7 14.2 10.3 21.9 5.9 7.7-4.4 10.3-14.2 5.9-21.9-2.9-5-8.3-8-14-8zm48-264h-42.2c-4.4-7.7-14.2-10.3-21.9-5.9-7.7 4.4-10.3 14.2-5.9 21.9 4.4 7.7 14.2 10.3 21.9 5.9 2.4-1.4 4.5-3.4 5.9-5.9H496v-16z"/><path class="st2" d="M136 272h24v24h-24v-24zm0-104h24v24h-24v-24zm0 48h24v24h-24v-24zm0 104h24v24h-24v-24z"/><path class="st1" d="M128 432c-5.7 0-10.9 3.1-13.8 8h-30L72 421.6v-31.8c7.7-4.4 10.3-14.2 5.9-21.9-4.4-7.7-14.2-10.3-21.9-5.9-7.7 4.4-10.3 14.2-5.9 21.9 1.4 2.4 3.4 4.5 5.9 5.9V424c0 1.6.5 3.1 1.3 4.4l16 24c1.5 2.2 4 3.6 6.7 3.6h34.2c4.4 7.7 14.2 10.3 21.9 5.9 7.7-4.4 10.3-14.2 5.9-21.9-2.9-5-8.3-8-14-8z"/><path class="st2" d="M352 272h24v24h-24v-24zm0 48h24v24h-24v-24zm0-104h24v24h-24v-24zm0-48h24v24h-24v-24z"/><path d="M392 416c13.3 0 24 10.7 24 24s-10.7 24-24 24h-64c-13.3 0-24-10.7-24-24s10.7-24 24-24h64z" fill="#ff9811"/><path class="st2" d="M272 136h24v24h-24v-24zm48 0h24v24h-24v-24zm-104 0h24v24h-24v-24zm-48 0h24v24h-24v-24z"/><path class="st1" d="M72 178.2V77.8c7.7-4.4 10.3-14.2 5.9-21.9C73.5 48.2 63.7 45.6 56 50s-10.3 14.2-5.9 21.9c1.4 2.4 3.4 4.5 5.9 5.9v100.5c-7.7 4.4-10.3 14.2-5.9 21.9 4.4 7.7 14.2 10.3 21.9 5.9s10.3-14.2 5.9-21.9c-1.4-2.5-3.5-4.6-5.9-6z"/><path class="st4" d="M112 48h32v64h-32V48z"/><path d="M376 48h64v24h-64V48zm0 48h64v24h-64V96z" fill="#ffda44"/><path d="M160 160h192v192H160V160z" fill="#3c366b"/><path d="M160 160h192v12.9c0 98.9-80.2 179.1-179.1 179.1H160V160z" fill="#434190"/><path d="M168 136h24v24h-24v-24zm48 0h24v24h-24v-24zm56 0h24v24h-24v-24zm48 0h24v24h-24v-24zm32 32h24v24h-24v-24zm0 48h24v24h-24v-24zm0 56h24v24h-24v-24zm0 48h24v24h-24v-24zm-80 32h24v24h-24v-24zm48 0h24v24h-24v-24zm-104 0h24v24h-24v-24zm-48 0h24v24h-24v-24zm-32-32h24v24h-24v-24zm0-48h24v24h-24v-24zm0-56h24v24h-24v-24zm0-48h24v24h-24v-24z" fill="#ebf4ff"/><circle class="st4" cx="192" cy="192" r="8"/><path class="st1" d="M432 285.8V360h-10.2c-4.4-7.7-14.2-10.3-21.9-5.9s-10.3 14.2-5.9 21.9c4.4 7.7 14.2 10.3 21.9 5.9 2.4-1.4 4.5-3.4 5.9-5.9H440c4.4 0 8-3.6 8-8v-82.2c7.7-4.4 10.3-14.2 5.9-21.9s-14.2-10.3-21.9-5.9c-7.7 4.4-10.3 14.2-5.9 21.9 1.4 2.5 3.5 4.5 5.9 5.9zM192 80c5.7 0 10.9-3.1 13.8-8h60.4c4.4 7.7 14.2 10.3 21.9 5.9 7.7-4.4 10.3-14.2 5.9-21.9-4.4-7.7-14.2-10.3-21.9-5.9-2.4 1.4-4.5 3.4-5.9 5.9h-60.4c-4.4-7.7-14.2-10.3-21.9-5.9S173.6 64.3 178 72c2.9 5 8.3 8 14 8z"/><path d="M168 352h24v8h-24v-8zm48 0h24v8h-24v-8zm56 0h24v8h-24v-8zm48 0h24v8h-24v-8z" fill="#c3dafe"/><path d="M296 352h24v8h-24v-8zm48 0h8v8h-8v-8zm-104 0h32v8h-32v-8zm-48 0h24v8h-24v-8zm-32 0h8v8h-8v-8z" fill="#5a67d8"/><path d="M320 424h40v8h-40v-8z" fill="#ffad41"/></g></svg>