<svg version="1.1" id="Capa_1" xmlns="http://www.w3.org/2000/svg" x="0" y="0" viewBox="0 0 512 512" xml:space="preserve"><style>.st0{fill:#667eea}.st1{fill:#ffd064}.st3{fill:#c3dafe}.st6{fill:#7f9cf5}.st7{fill:#a3bffa}</style><path class="st0" d="M195 217.9c-4.3 0-7.8-5.2-7.8-11.6v-46c0-6.4 3.5-11.6 7.8-11.6s7.8 5.2 7.8 11.6v46c.1 6.4-3.4 11.6-7.8 11.6z"/><path class="st1" d="M205.7 235.8h-22.4c-4 0-7.3-3.3-7.3-7.3v-22.4c0-4 3.3-7.3 7.3-7.3h22.4c4 0 7.3 3.3 7.3 7.3v22.4c0 4-3.2 7.3-7.3 7.3z"/><path d="M152.8 167.8h206.4c21.4 0 39.5-16.8 40.2-38.2V128c0-25.2-20.4-45.6-45.6-45.6h-.1c0-.7.1-1.3.1-2 0-25.2-20.4-45.6-45.6-45.6-7.9 0-15.2 2-21.7 5.5C275.9 17.5 253.4 1.5 226.9.2c-39.3-1.9-72.7 29.7-72.9 69 0 4.6.4 9.1 1.2 13.4-23.8 1.6-42.6 21.4-42.6 45.5v1.6c.7 21.4 18.8 38.1 40.2 38.1z" fill="#ebf4ff"/><path class="st3" d="M353.8 82.4s-.1 0 0 0v-2c0-25.2-20.4-45.6-45.6-45.6-7.9 0-15.2 2-21.7 5.5C275.9 17.5 253.4 1.5 226.9.2c-24.3-1.2-46.3 10.4-59.6 28.7 11.8-7.6 25.9-11.7 40.9-11 20.6 1 38.8 11 50.8 26 5.6 7 14.5 10.6 23.3 9.2 2.3-.4 4.7-.5 7.1-.5 30 0 40.3 18.8 43.9 32.8 2 8.2 8.1 14.6 16.1 17.2 18.2 6 31.3 23.1 31.3 43.3v1.6c-.2 6-1.8 11.7-4.4 16.7 13.2-6.1 22.7-19.1 23.2-34.5v-1.6c-.1-25.2-20.5-45.7-45.7-45.7z"/><path class="st0" d="M297.5 225.1c-4.3 0-7.8-4.3-7.8-9.7V124c0-5.4 3.5-9.7 7.8-9.7s7.8 4.3 7.8 9.7v91.5c0 5.3-3.5 9.6-7.8 9.6z"/><path class="st1" d="M308.7 132.8h-22.4c-4 0-7.3-3.3-7.3-7.3v-22.4c0-4 3.3-7.3 7.3-7.3h22.4c4 0 7.3 3.3 7.3 7.3v22.4c0 4-3.2 7.3-7.3 7.3z"/><path class="st0" d="M297.5 309.1c-4.3 0-7.8-5.1-7.8-11.4v-58.5c0-6.3 3.5-11.4 7.8-11.4s7.8 5.1 7.8 11.4v58.5c0 6.3-3.5 11.4-7.8 11.4z"/><path d="M308.7 246.2h-22.4c-4 0-7.3-3.3-7.3-7.3v-22.4c0-4 3.3-7.3 7.3-7.3h22.4c4 0 7.3 3.3 7.3 7.3v22.4c0 4.1-3.2 7.3-7.3 7.3z" fill="#ff8086"/><path class="st0" d="M138.6 374h231.9v52.5H138.6V374z"/><path d="M339.2 374h31.3v52.5h-31.3V374z" fill="#5a67d8"/><path class="st3" d="M413.1 512H98.9c-6.1 0-11.1-5-11.1-11.1v-73c0-6.1 5-11.1 11.1-11.1h314.2c6.1 0 11.1 5 11.1 11.1v73c0 6.1-5 11.1-11.1 11.1z"/><circle class="st0" cx="127" cy="464.4" r="7.1"/><circle class="st0" cx="157.5" cy="464.4" r="7.1"/><circle class="st0" cx="188" cy="464.4" r="7.1"/><circle class="st0" cx="218.5" cy="464.4" r="7.1"/><path class="st6" d="M390.5 481.7H255.9c-3.6 0-6.5-2.9-6.5-6.5v-20.6c0-3.6 2.9-6.5 6.5-6.5h134.6c3.6 0 6.5 2.9 6.5 6.5v20.6c0 3.6-2.9 6.5-6.5 6.5z"/><path class="st3" d="M413.1 383.7H98.9c-6.1 0-11.1-5-11.1-11.1v-73c0-6.1 5-11.1 11.1-11.1h314.2c6.1 0 11.1 5 11.1 11.1v73c0 6.1-5 11.1-11.1 11.1z"/><path class="st0" d="M134 336.1c0 3.9-3.2 7.1-7.1 7.1s-7.1-3.2-7.1-7.1c0-3.9 3.2-7.1 7.1-7.1s7.1 3.2 7.1 7.1zm30.5 0c0 3.9-3.2 7.1-7.1 7.1-3.9 0-7.1-3.2-7.1-7.1 0-3.9 3.2-7.1 7.1-7.1 4 0 7.1 3.2 7.1 7.1zm30.5 0c0 3.9-3.2 7.1-7.1 7.1s-7.1-3.2-7.1-7.1c0-3.9 3.2-7.1 7.1-7.1s7.1 3.2 7.1 7.1zm30.5 0c0 3.9-3.2 7.1-7.1 7.1s-7.1-3.2-7.1-7.1c0-3.9 3.2-7.1 7.1-7.1s7.1 3.2 7.1 7.1z"/><path class="st6" d="M390.5 353.4H255.9c-3.6 0-6.5-2.9-6.5-6.5v-20.6c0-3.6 2.9-6.5 6.5-6.5h134.6c3.6 0 6.5 2.9 6.5 6.5v20.6c0 3.6-2.9 6.5-6.5 6.5z"/><path class="st7" d="M413.1 416.7h-31.3c6.1 0 11.1 5 11.1 11.1v73c0 6.1-5 11.1-11.1 11.1h31.3c6.1 0 11.1-5 11.1-11.1v-73c0-6.1-5-11.1-11.1-11.1z"/><path class="st0" d="M390.5 448.1h-31.3c3.6 0 6.5 2.9 6.5 6.5v20.6c0 3.6-2.9 6.5-6.5 6.5h31.3c3.6 0 6.5-2.9 6.5-6.5v-20.6c0-3.6-2.9-6.5-6.5-6.5z"/><path class="st7" d="M413.1 288.4h-31.3c6.1 0 11.1 5 11.1 11.1v73c0 6.1-5 11.1-11.1 11.1h31.3c6.1 0 11.1-5 11.1-11.1v-73c0-6.1-5-11.1-11.1-11.1z"/><path class="st0" d="M390.5 319.8h-31.3c3.6 0 6.5 2.9 6.5 6.5v20.6c0 3.6-2.9 6.5-6.5 6.5h31.3c3.6 0 6.5-2.9 6.5-6.5v-20.6c0-3.6-2.9-6.5-6.5-6.5z"/></svg>