<svg xmlns="http://www.w3.org/2000/svg" viewBox="0 0 512 512"><linearGradient id="a" gradientUnits="userSpaceOnUse" x1="108.793" y1="431.398" x2="385" y2="155.192" gradientTransform="matrix(1.0039 0 0 -1.0039 -.024 513.984)"><stop offset="0" stop-color="#c3dafe"/><stop offset="1" stop-color="#a3bffa"/></linearGradient><path d="M370.7 76.3c-15.3 0-30.1 2.4-43.9 7C312 35.1 267.1 0 214.1 0 149 0 96.2 52.8 96.2 117.9c0 9.4 1.1 18.6 3.2 27.3C43.9 149.1 0 195.4 0 251.9c0 59.1 47.9 107 107 107h263.6c78.1 0 141.3-63.3 141.3-141.3S448.7 76.3 370.7 76.3z" fill="url(#a)"/><linearGradient id="b" gradientUnits="userSpaceOnUse" x1="215.328" y1="395.122" x2="393.038" y2="431.256" gradientTransform="matrix(1.0039 0 0 -1.0039 -.024 513.984)"><stop offset="0" stop-color="#b5dbff" stop-opacity="0"/><stop offset=".243" stop-color="#93cef6" stop-opacity=".243"/><stop offset=".576" stop-color="#a3bffa" stop-opacity=".58"/><stop offset=".84" stop-color="#a3bffa" stop-opacity=".84"/><stop offset="1" stop-color="#a3bffa"/></linearGradient><path d="M229.3 217.7c0 5.7.3 11.4 1 16.9-5.3.7-10.8 1.1-16.3 1.1-65 0-117.8-52.7-117.8-117.8S149 0 214.1 0c53.1 0 97.9 35.1 112.7 83.3-56.6 18.4-97.5 71.6-97.5 134.4z" fill="url(#b)"/><linearGradient id="c" gradientUnits="userSpaceOnUse" x1="345.079" y1="70.008" x2="229.966" y2="259.912" gradientTransform="matrix(1.0039 0 0 -1.0039 -.024 513.984)"><stop offset="0" stop-color="#b5dbff" stop-opacity="0"/><stop offset=".173" stop-color="#8fc5e9" stop-opacity=".173"/><stop offset=".454" stop-color="#a3bffa" stop-opacity=".45"/><stop offset=".696" stop-color="#7f9cf5" stop-opacity=".7"/><stop offset=".885" stop-color="#7f9cf5" stop-opacity=".88"/><stop offset="1" stop-color="#667eea"/></linearGradient><path d="M421.3 349.6L313.4 241.9c-2.6-3.4-34.3-1.7-36.4 3.7-.4-.4-2.9-3-3.9-3.7-2.6-3.4-34.3-1.7-36.4 3.7-.4-.4-2.9-3-3.9-3.7-2.6-3.4-37.3.8-37.3 8.7v7.2c-10 1.2-18 9.2-19.2 19.2h-7.2c-7.9 0-12.1 34.7-8.7 37.3.7 1 3.3 3.5 3.7 3.9-5.4 2-7.1 33.7-3.7 36.4.3.4 2.2 2.4 4.3 4.5h205.8c18-.1 35.1-3.4 50.8-9.5z" fill="url(#c)"/><linearGradient id="d" gradientUnits="userSpaceOnUse" x1="251.334" y1="198.033" x2="251.334" y2="129.319" gradientTransform="matrix(1.0039 0 0 -1.0039 -.024 513.984)"><stop offset="0" stop-color="#b5dbff" stop-opacity="0"/><stop offset=".243" stop-color="#93cef6" stop-opacity=".243"/><stop offset=".576" stop-color="#6abfec" stop-opacity=".576"/><stop offset=".84" stop-color="#51b5e5" stop-opacity=".84"/><stop offset="1" stop-color="#48b2e3"/></linearGradient><path d="M.8 265.3C7.4 318.1 52.4 359 107 359h263.6c61.3 0 113.6-39.1 133.1-93.7H.8z" fill="url(#d)"/><linearGradient id="e" gradientUnits="userSpaceOnUse" x1="214.92" y1="335.977" x2="214.92" y2="244.971" gradientTransform="matrix(1.0039 0 0 -1.0039 -.024 513.984)"><stop offset="0" stop-color="#b5dbff" stop-opacity="0"/><stop offset=".243" stop-color="#93cef6" stop-opacity=".243"/><stop offset=".576" stop-color="#a3bffa" stop-opacity=".58"/><stop offset=".84" stop-color="#7f9cf5" stop-opacity=".84"/><stop offset="1" stop-color="#7f9cf5"/></linearGradient><path d="M205.2 141.7h21.1v119.5h-21.1V141.7z" fill="url(#e)"/><linearGradient id="f" gradientUnits="userSpaceOnUse" x1="255.023" y1="388.722" x2="255.023" y2="240.653" gradientTransform="matrix(1.0039 0 0 -1.0039 -.024 513.984)"><stop offset="0" stop-color="#b5dbff" stop-opacity="0"/><stop offset=".243" stop-color="#93cef6" stop-opacity=".243"/><stop offset=".576" stop-color="#a3bffa" stop-opacity=".58"/><stop offset=".84" stop-color="#51b5e5" stop-opacity=".84"/><stop offset="1" stop-color="#48b2e3"/></linearGradient><path d="M245.5 66.8h21.1v194.4h-21.1V66.8z" fill="url(#f)"/><linearGradient id="g" gradientUnits="userSpaceOnUse" x1="295.126" y1="305.31" x2="295.126" y2="247.482" gradientTransform="matrix(1.0039 0 0 -1.0039 -.024 513.984)"><stop offset="0" stop-color="#b5dbff" stop-opacity="0"/><stop offset=".243" stop-color="#93cef6" stop-opacity=".243"/><stop offset=".576" stop-color="#a3bffa" stop-opacity=".58"/><stop offset=".84" stop-color="#7f9cf5" stop-opacity=".84"/><stop offset="1" stop-color="#7f9cf5"/></linearGradient><path d="M285.7 185.2h21.1v75.9h-21.1v-75.9z" fill="url(#g)"/><linearGradient id="h" gradientUnits="userSpaceOnUse" x1="120.197" y1="291.051" x2="120.197" y2="222.631" gradientTransform="matrix(0 -1.0039 -1.0039 0 403.347 456.171)"><stop offset="0" stop-color="#b5dbff" stop-opacity="0"/><stop offset=".243" stop-color="#93cef6" stop-opacity=".243"/><stop offset=".576" stop-color="#a3bffa" stop-opacity=".58"/><stop offset=".84" stop-color="#7f9cf5" stop-opacity=".84"/><stop offset="1" stop-color="#7f9cf5"/></linearGradient><path d="M174.6 325v21H84.8v-21h89.8z" fill="url(#h)"/><linearGradient id="i" gradientUnits="userSpaceOnUse" x1="156.611" y1="330.706" x2="156.611" y2="219.384" gradientTransform="matrix(0 -1.0039 -1.0039 0 403.347 456.171)"><stop offset="0" stop-color="#b5dbff" stop-opacity="0"/><stop offset=".243" stop-color="#93cef6" stop-opacity=".243"/><stop offset=".576" stop-color="#a3bffa" stop-opacity=".58"/><stop offset=".84" stop-color="#7f9cf5" stop-opacity=".84"/><stop offset="1" stop-color="#7f9cf5"/></linearGradient><path d="M174.6 288.4v21.1H28.5v-21.1h146.1z" fill="url(#i)"/><linearGradient id="j" gradientUnits="userSpaceOnUse" x1="120.197" y1="66.619" x2="120.197" y2="8.547" gradientTransform="rotate(-90 389.47 66.702) scale(1.0039)"><stop offset="0" stop-color="#b5dbff" stop-opacity="0"/><stop offset=".243" stop-color="#93cef6" stop-opacity=".243"/><stop offset=".576" stop-color="#a3bffa" stop-opacity=".58"/><stop offset=".84" stop-color="#7f9cf5" stop-opacity=".84"/><stop offset="1" stop-color="#7f9cf5"/></linearGradient><path d="M335.8 325v21H412v-21h-76.2z" fill="url(#j)"/><linearGradient id="k" gradientUnits="userSpaceOnUse" x1="156.611" y1="100.277" x2="156.611" y2="5.791" gradientTransform="rotate(-90 389.47 66.702) scale(1.0039)"><stop offset="0" stop-color="#b5dbff" stop-opacity="0"/><stop offset=".243" stop-color="#93cef6" stop-opacity=".243"/><stop offset=".576" stop-color="#a3bffa" stop-opacity=".58"/><stop offset=".84" stop-color="#7f9cf5" stop-opacity=".84"/><stop offset="1" stop-color="#7f9cf5"/></linearGradient><path d="M335.8 288.4v21.1h124v-21.1h-124z" fill="url(#k)"/><linearGradient id="l" gradientUnits="userSpaceOnUse" x1="153.525" y1="55.478" x2="219.727" y2="-10.724" gradientTransform="matrix(1.0039 0 0 -1.0039 -.024 513.984)"><stop offset="0" stop-color="#5a67d8"/><stop offset="1" stop-color="#434190"/></linearGradient><path d="M191 501.3H85c-5.5 0-10-4.5-10-10s4.5-10 10-10h106c8.2 0 14.9-6.7 14.9-14.9v-48.1c0-5.5 4.5-10 10-10s10 4.5 10 10v48.1c.1 19.2-15.6 34.9-34.9 34.9z" fill="url(#l)"/><linearGradient id="m" gradientUnits="userSpaceOnUse" x1="71.523" y1="29.727" x2="90.261" y2="10.989" gradientTransform="matrix(1.0039 0 0 -1.0039 -.024 513.984)"><stop offset="0" stop-color="#e9d8fd"/><stop offset="1" stop-color="#d6bcfa"/></linearGradient><circle cx="78.6" cy="490.9" r="21.1" fill="url(#m)"/><linearGradient id="n" gradientUnits="userSpaceOnUse" x1="288.372" y1="101.658" x2="375.67" y2="14.36" gradientTransform="matrix(1.0039 0 0 -1.0039 -.024 513.984)"><stop offset="0" stop-color="#5a67d8"/><stop offset="1" stop-color="#434190"/></linearGradient><path d="M321 501.3h106c5.5 0 10-4.5 10-10s-4.5-10-10-10H321c-8.2 0-14.9-6.7-14.9-14.9v-48.1c0-5.5-4.5-10-10-10s-10 4.5-10 10v48.1c-.1 19.2 15.6 34.9 34.9 34.9z" fill="url(#n)"/><linearGradient id="o" gradientUnits="userSpaceOnUse" x1="425.023" y1="29.726" x2="443.762" y2="10.988" gradientTransform="matrix(1.0039 0 0 -1.0039 -.024 513.984)"><stop offset="0" stop-color="#e9d8fd"/><stop offset="1" stop-color="#d6bcfa"/></linearGradient><circle cx="433.4" cy="490.9" r="21.1" fill="url(#o)"/><linearGradient id="p" gradientUnits="userSpaceOnUse" x1="245.023" y1="53.69" x2="265.023" y2="53.69" gradientTransform="matrix(1.0039 0 0 -1.0039 -.024 513.984)"><stop offset="0" stop-color="#5a67d8"/><stop offset="1" stop-color="#434190"/></linearGradient><path d="M256 512c-5.5 0-10-4.5-10-10v-83.8c0-5.5 4.5-10 10-10s10 4.5 10 10V502c0 5.5-4.5 10-10 10z" fill="url(#p)"/><linearGradient id="q" gradientUnits="userSpaceOnUse" x1="331.725" y1="219.345" x2="349.553" y2="205.761" gradientTransform="matrix(1.0039 0 0 -1.0039 -.024 513.984)"><stop offset="0" stop-color="#ebf4ff"/><stop offset="1" stop-color="#c3dafe"/></linearGradient><path d="M342.8 317.2h-10.9c-7.9 0-14.3-6.4-14.3-14.3v-11.7c0-7.9 6.4-14.3 14.3-14.3h10.9c7.9 0 14.3 6.4 14.3 14.3V303c0 7.8-6.4 14.2-14.3 14.2z" fill="url(#q)"/><linearGradient id="r" gradientUnits="userSpaceOnUse" x1="331.725" y1="179.242" x2="349.553" y2="165.658" gradientTransform="matrix(1.0039 0 0 -1.0039 -.024 513.984)"><stop offset="0" stop-color="#ebf4ff"/><stop offset="1" stop-color="#c3dafe"/></linearGradient><path d="M342.8 357.5h-10.9c-7.9 0-14.3-6.4-14.3-14.3v-11.7c0-7.9 6.4-14.3 14.3-14.3h10.9c7.9 0 14.3 6.4 14.3 14.3v11.7c0 7.9-6.4 14.3-14.3 14.3z" fill="url(#r)"/><linearGradient id="s" gradientUnits="userSpaceOnUse" x1="331.725" y1="139.139" x2="349.553" y2="125.556" gradientTransform="matrix(1.0039 0 0 -1.0039 -.024 513.984)"><stop offset="0" stop-color="#ebf4ff"/><stop offset="1" stop-color="#c3dafe"/></linearGradient><path d="M342.8 397.7h-10.9c-7.9 0-14.3-6.4-14.3-14.3v-11.7c0-7.9 6.4-14.3 14.3-14.3h10.9c7.9 0 14.3 6.4 14.3 14.3v11.7c0 8-6.4 14.3-14.3 14.3z" fill="url(#s)"/><linearGradient id="t" gradientUnits="userSpaceOnUse" x1="169.65" y1="219.345" x2="187.479" y2="205.761" gradientTransform="matrix(1.0039 0 0 -1.0039 -.024 513.984)"><stop offset="0" stop-color="#ebf4ff"/><stop offset="1" stop-color="#c3dafe"/></linearGradient><path d="M180.1 317.2h-10.9c-7.9 0-14.3-6.4-14.3-14.3v-11.7c0-7.9 6.4-14.3 14.3-14.3h10.9c7.9 0 14.3 6.4 14.3 14.3V303c-.1 7.8-6.4 14.2-14.3 14.2z" fill="url(#t)"/><linearGradient id="u" gradientUnits="userSpaceOnUse" x1="169.65" y1="179.242" x2="187.479" y2="165.658" gradientTransform="matrix(1.0039 0 0 -1.0039 -.024 513.984)"><stop offset="0" stop-color="#ebf4ff"/><stop offset="1" stop-color="#c3dafe"/></linearGradient><path d="M180.1 357.5h-10.9c-7.9 0-14.3-6.4-14.3-14.3v-11.7c0-7.9 6.4-14.3 14.3-14.3h10.9c7.9 0 14.3 6.4 14.3 14.3v11.7c-.1 7.9-6.4 14.3-14.3 14.3z" fill="url(#u)"/><linearGradient id="v" gradientUnits="userSpaceOnUse" x1="169.651" y1="139.14" x2="187.48" y2="125.557" gradientTransform="matrix(1.0039 0 0 -1.0039 -.024 513.984)"><stop offset="0" stop-color="#ebf4ff"/><stop offset="1" stop-color="#c3dafe"/></linearGradient><path d="M180.1 397.7h-10.9c-7.9 0-14.3-6.4-14.3-14.3v-11.7c0-7.9 6.4-14.3 14.3-14.3h10.9c7.9 0 14.3 6.4 14.3 14.3v11.7c-.1 8-6.4 14.3-14.3 14.3z" fill="url(#v)"/><linearGradient id="w" gradientUnits="userSpaceOnUse" x1="412.762" y1="300.382" x2="430.59" y2="286.798" gradientTransform="rotate(90 257.004 256.98) scale(1.0039)"><stop offset="0" stop-color="#ebf4ff"/><stop offset="1" stop-color="#c3dafe"/></linearGradient><path d="M235.9 424.1v-10.9c0-7.9-6.4-14.3-14.3-14.3h-11.7c-7.9 0-14.3 6.4-14.3 14.3v10.9c0 7.9 6.4 14.3 14.3 14.3h11.7c7.9 0 14.3-6.4 14.3-14.3z" fill="url(#w)"/><linearGradient id="x" gradientUnits="userSpaceOnUse" x1="412.762" y1="260.279" x2="430.59" y2="246.696" gradientTransform="rotate(90 257.004 256.98) scale(1.0039)"><stop offset="0" stop-color="#ebf4ff"/><stop offset="1" stop-color="#c3dafe"/></linearGradient><path d="M276.1 424.1v-10.9c0-7.9-6.4-14.3-14.3-14.3h-11.7c-7.9 0-14.3 6.4-14.3 14.3v10.9c0 7.9 6.4 14.3 14.3 14.3h11.7c7.9 0 14.3-6.4 14.3-14.3z" fill="url(#x)"/><linearGradient id="y" gradientUnits="userSpaceOnUse" x1="412.762" y1="220.177" x2="430.59" y2="206.593" gradientTransform="rotate(90 257.004 256.98) scale(1.0039)"><stop offset="0" stop-color="#ebf4ff"/><stop offset="1" stop-color="#c3dafe"/></linearGradient><path d="M316.4 424.1v-10.9c0-7.9-6.4-14.3-14.3-14.3h-11.7c-7.9 0-14.3 6.4-14.3 14.3v10.9c0 7.9 6.4 14.3 14.3 14.3h11.7c7.9 0 14.3-6.4 14.3-14.3z" fill="url(#y)"/><linearGradient id="z" gradientUnits="userSpaceOnUse" x1="250.687" y1="300.382" x2="268.516" y2="286.798" gradientTransform="rotate(90 257.004 256.98) scale(1.0039)"><stop offset="0" stop-color="#ebf4ff"/><stop offset="1" stop-color="#c3dafe"/></linearGradient><path d="M235.9 261.4v-10.9c0-7.9-6.4-14.3-14.3-14.3h-11.7c-7.9 0-14.3 6.4-14.3 14.3v10.9c0 7.9 6.4 14.3 14.3 14.3h11.7c7.9 0 14.3-6.4 14.3-14.3z" fill="url(#z)"/><linearGradient id="A" gradientUnits="userSpaceOnUse" x1="250.688" y1="260.28" x2="268.517" y2="246.697" gradientTransform="rotate(90 257.004 256.98) scale(1.0039)"><stop offset="0" stop-color="#ebf4ff"/><stop offset="1" stop-color="#c3dafe"/></linearGradient><path d="M276.1 261.4v-10.9c0-7.9-6.4-14.3-14.3-14.3h-11.7c-7.9 0-14.3 6.4-14.3 14.3v10.9c0 7.9 6.4 14.3 14.3 14.3h11.7c7.9 0 14.3-6.4 14.3-14.3z" fill="url(#A)"/><linearGradient id="B" gradientUnits="userSpaceOnUse" x1="250.687" y1="220.177" x2="268.516" y2="206.593" gradientTransform="rotate(90 257.004 256.98) scale(1.0039)"><stop offset="0" stop-color="#ebf4ff"/><stop offset="1" stop-color="#c3dafe"/></linearGradient><path d="M316.4 261.4v-10.9c0-7.9-6.4-14.3-14.3-14.3h-11.7c-7.9 0-14.3 6.4-14.3 14.3v10.9c0 7.9 6.4 14.3 14.3 14.3h11.7c7.9 0 14.3-6.4 14.3-14.3z" fill="url(#B)"/><linearGradient id="C" gradientUnits="userSpaceOnUse" x1="216.023" y1="214.94" x2="336.327" y2="94.636" gradientTransform="matrix(1.0039 0 0 -1.0039 -.024 513.984)"><stop offset="0" stop-color="#5a67d8"/><stop offset="1" stop-color="#434190"/></linearGradient><path d="M313.7 417.1H198.3c-12.2 0-22-9.9-22-22V279.6c0-12.2 9.9-22 22-22h115.5c12.2 0 22 9.9 22 22v115.5c0 12.1-9.9 22-22.1 22z" fill="url(#C)"/><linearGradient id="D" gradientUnits="userSpaceOnUse" x1="236.051" y1="356.986" x2="331.447" y2="261.589" gradientTransform="matrix(-1.0039 0 0 1.0039 524.024 10.016)"><stop offset="0" stop-color="#5a67d8"/><stop offset="1" stop-color="#434190"/></linearGradient><path d="M210.2 274.1h91.5c9.6 0 17.5 7.8 17.5 17.5v91.5c0 9.6-7.8 17.5-17.5 17.5h-91.5c-9.6 0-17.5-7.8-17.5-17.5v-91.5c.1-9.7 7.9-17.5 17.5-17.5z" fill="url(#D)"/><linearGradient id="E" gradientUnits="userSpaceOnUse" x1="233.523" y1="197.44" x2="286.703" y2="144.26" gradientTransform="matrix(1.0039 0 0 -1.0039 -.024 513.984)"><stop offset="0" stop-color="#b794f4"/><stop offset="1" stop-color="#7f9cf5"/></linearGradient><path d="M292 387h-72c-7.6 0-13.7-6.1-13.7-13.7v-71.9c0-7.6 6.1-13.7 13.7-13.7h72c7.6 0 13.7 6.1 13.7 13.7v71.9c0 7.6-6.2 13.7-13.7 13.7z" fill="url(#E)"/></svg>