<svg version="1.1" id="Layer_1" xmlns="http://www.w3.org/2000/svg" x="0" y="0" viewBox="0 0 512 512" xml:space="preserve"><style>.st0{fill:#667eea}.st1{fill:#5a67d8}</style><path class="st0" d="M194.2 97.1c0 9.8-7.9 17.7-17.7 17.7h-7.8c-1.9 0-3.6 1.3-4.1 3.2-1.3 4.2-3 8.3-5.1 12.3-.9 1.7-.6 3.8.7 5.2l5.5 5.5c3.3 3.3 5.2 7.8 5.2 12.5s-1.9 9.2-5.2 12.5c-3.3 3.3-7.8 5.2-12.5 5.2s-9.2-1.9-12.5-5.2l-5.5-5.5c-1.4-1.4-3.5-1.6-5.2-.7-3.9 2.1-8 3.8-12.3 5.1-1.9.5-3.1 2.2-3.2 4.1v7.7c0 9.8-7.9 17.7-17.7 17.7-9.8 0-17.7-7.9-17.7-17.7v-7.8c0-1.9-1.3-3.6-3.2-4.1-4.2-1.3-8.4-3-12.3-5.1-1.7-.9-3.8-.6-5.2.7l-5.5 5.5c-3.3 3.3-7.8 5.2-12.5 5.2s-9.2-1.9-12.5-5.2c-3.3-3.3-5.2-7.8-5.2-12.5s1.9-9.2 5.2-12.5l5.5-5.5c1.4-1.4 1.6-3.5.7-5.2-2.1-3.9-3.8-8-5.1-12.3-.5-1.8-2.2-3-4-3.1h-7.8C7.9 114.8 0 106.9 0 97.1c0-9.8 7.9-17.7 17.7-17.7h7.8c1.9 0 3.6-1.3 4.1-3.2 1.3-4.2 3-8.3 5.1-12.3.9-1.7.6-3.8-.7-5.2l-5.5-5.5c-3.3-3.3-5.2-7.8-5.2-12.5s1.9-9.2 5.2-12.5C31.8 24.9 36.3 23 41 23s9.2 1.9 12.5 5.2l5.5 5.5c1.4 1.4 3.5 1.7 5.2.7 3.9-2.1 8-3.8 12.3-5.1 1.8-.5 3.1-2.2 3.1-4.1v-7.8C79.4 7.9 87.4 0 97.1 0c9.8 0 17.7 7.9 17.7 17.7v7.8c0 1.9 1.3 3.6 3.2 4.1 4.2 1.3 8.3 3 12.3 5.1 1.7.9 3.8.6 5.2-.7l5.5-5.5c3.3-3.3 7.8-5.2 12.5-5.2s9.2 1.9 12.5 5.2c3.3 3.3 5.2 7.8 5.2 12.5s-1.9 9.2-5.2 12.5l-5.5 5.5c-1.4 1.4-1.6 3.5-.7 5.2 2.1 3.9 3.8 8 5.1 12.3.5 1.9 2.2 3.1 4.1 3.1h7.7c9.6-.1 17.5 7.8 17.5 17.5z"/><path class="st1" d="M132.4 97.1c0 19.5-15.8 35.3-35.3 35.3-19.5 0-35.3-15.8-35.3-35.3 0-19.5 15.8-35.3 35.3-35.3 19.5 0 35.3 15.8 35.3 35.3z"/><path class="st0" d="M512 97.1c0 9.8-7.9 17.7-17.7 17.7h-7.8c-1.9 0-3.6 1.3-4.1 3.2-1.3 4.2-3 8.3-5.1 12.3-.9 1.7-.6 3.8.7 5.2l5.5 5.5c3.3 3.3 5.2 7.8 5.2 12.5s-1.9 9.2-5.2 12.5c-3.3 3.3-7.8 5.2-12.5 5.2s-9.2-1.9-12.5-5.2l-5.5-5.5c-1.4-1.4-3.5-1.6-5.2-.7-3.9 2.1-8 3.8-12.3 5.1-1.9.5-3.1 2.2-3.2 4.1v7.7c0 9.8-7.9 17.7-17.7 17.7s-17.7-7.9-17.7-17.7v-7.8c0-1.9-1.3-3.6-3.2-4.1-4.2-1.3-8.4-3-12.3-5.1-1.7-.9-3.8-.6-5.2.7l-5.5 5.5c-3.3 3.3-7.8 5.2-12.5 5.2s-9.2-1.9-12.5-5.2c-3.3-3.3-5.2-7.8-5.2-12.5s1.9-9.2 5.2-12.5l5.5-5.5c1.4-1.4 1.6-3.5.7-5.2-2.1-3.9-3.8-8-5.1-12.3-.5-1.9-2.2-3.1-4.1-3.1H335c-9.8 0-17.7-7.9-17.7-17.7s7.9-17.7 17.7-17.7h7.8c1.9 0 3.6-1.3 4.1-3.2 1.3-4.2 3-8.3 5.1-12.3.9-1.7.6-3.8-.7-5.2l-5.5-5.5c-3.3-3.3-5.2-7.8-5.2-12.5s1.9-9.2 5.2-12.5c3.3-3.3 7.8-5.2 12.5-5.2s9.2 1.9 12.5 5.2l5.5 5.5c1.4 1.4 3.5 1.7 5.2.7 3.9-2.1 8-3.8 12.3-5.1 1.8-.5 3-2.2 3.1-4.1v-7.8c0-9.8 7.9-17.7 17.7-17.7 9.8 0 17.7 7.9 17.7 17.7v7.8c0 1.9 1.3 3.6 3.2 4.1 4.2 1.3 8.3 3 12.3 5.1 1.7.9 3.8.6 5.2-.7l5.5-5.5c3.3-3.3 7.8-5.2 12.5-5.2s9.2 1.9 12.5 5.2c3.3 3.3 5.2 7.8 5.2 12.5s-1.9 9.2-5.2 12.5l-5.5 5.5c-1.4 1.4-1.6 3.5-.7 5.2 2.1 3.9 3.8 8 5.1 12.3.5 1.9 2.2 3.1 4.1 3.1h7.7c9.9.2 17.8 8.1 17.8 17.8z"/><path class="st1" d="M450.2 97.1c0 19.5-15.8 35.3-35.3 35.3-19.5 0-35.3-15.8-35.3-35.3 0-19.5 15.8-35.3 35.3-35.3 19.5 0 35.3 15.8 35.3 35.3z"/><path class="st0" d="M432.6 329.8V341c0 14.6-11.9 26.4-26.5 26.5h-19.8c-3.5 0-6.6 2.4-7.5 5.7-2.4 7.7-5.5 15.2-9.3 22.3-1.7 3.1-1.2 6.9 1.3 9.4l14 13.9c5 5 7.8 11.7 7.8 18.7s-2.8 13.8-7.8 18.8l-7.9 7.9c-5 5-11.7 7.8-18.8 7.8-7 0-13.8-2.8-18.7-7.8l-13.9-14c-2.5-2.5-6.3-3-9.4-1.3-7.1 3.8-14.6 6.9-22.3 9.3-3.4 1-5.7 4-5.7 7.5v19.7c0 14.6-11.9 26.4-26.5 26.5h-11.2c-14.6 0-26.4-11.9-26.5-26.5v-19.8c0-3.5-2.4-6.6-5.7-7.5-7.7-2.4-15.2-5.5-22.3-9.3-3.1-1.7-6.9-1.2-9.4 1.3l-13.9 14c-5 5-11.7 7.8-18.7 7.8s-13.8-2.8-18.8-7.8l-7.9-7.9c-5-5-7.8-11.7-7.8-18.8 0-7 2.8-13.8 7.8-18.7l14-13.9c2.5-2.5 3-6.3 1.3-9.4-3.8-7.1-6.9-14.6-9.3-22.3-1-3.4-4-5.7-7.5-5.7H106c-14.6 0-26.4-11.9-26.5-26.5v-11.2c0-14.6 11.9-26.4 26.5-26.5h19.8c3.5 0 6.6-2.4 7.5-5.7 2.4-7.7 5.5-15.2 9.3-22.3 1.7-3.1 1.2-6.9-1.3-9.4l-14-13.9c-5-5-7.8-11.7-7.8-18.7s2.8-13.8 7.8-18.8l7.9-7.9c5-5 11.7-7.8 18.8-7.8 7 0 13.8 2.8 18.7 7.8l13.9 14c2.5 2.5 6.3 3 9.4 1.3 7.1-3.8 14.6-6.9 22.3-9.3 3.4-1 5.7-4 5.7-7.5v-19.7c0-14.6 11.9-26.4 26.5-26.5h11.2c14.6 0 26.4 11.9 26.5 26.5v19.8c0 3.5 2.4 6.6 5.7 7.5 7.7 2.4 15.2 5.5 22.3 9.3 3.1 1.7 6.9 1.2 9.4-1.3l13.9-14c5-5 11.7-7.8 18.7-7.8s13.8 2.8 18.8 7.8l7.9 7.9c5 5 7.8 11.7 7.8 18.8 0 7-2.8 13.8-7.8 18.7l-14 13.9c-2.5 2.5-3 6.3-1.3 9.4 3.8 7.1 6.9 14.6 9.3 22.3 1 3.4 4 5.7 7.5 5.7h19.7c14.6.1 26.4 11.9 26.5 26.5z"/><path d="M344.3 335.4c0 45.3-34.3 83.3-79.4 87.8-2.9.3-5.8.4-8.8.4s-5.9-.2-8.8-.4c-47.4-4.8-82.4-46.2-79.3-93.7s43.4-83.9 91-82.3c47.5 1.6 85.3 40.6 85.3 88.2z" fill="#a3bffa"/><path d="M291.3 317.8c0 19.5-15.8 35.3-35.3 35.3s-35.3-15.8-35.3-35.3 15.8-35.3 35.3-35.3 35.3 15.8 35.3 35.3z" fill="#ebf4ff"/><path d="M323.2 392.7c-14.8 17.3-35.7 28.3-58.4 30.5-2.9.3-5.8.4-8.8.4s-5.9-.2-8.8-.4c-22.7-2.3-43.6-13.2-58.4-30.5 9.2-22.9 35.8-39.6 67.2-39.6h.8c31.1.3 57.3 16.9 66.4 39.6z" fill="#b794f4"/><path d="M264.8 388.4v34.9c-2.9.3-5.8.4-8.8.4s-5.9-.2-8.8-.4v-34.9c0-4.9 4-8.8 8.8-8.8s8.8 3.9 8.8 8.8z" fill="#805ad5"/></svg>