<svg version="1.1" id="Capa_1" xmlns="http://www.w3.org/2000/svg" x="0" y="0" viewBox="0 0 512 512" xml:space="preserve"><style>.st1{fill:#c3dafe}.st2{fill:#fad87c}.st3{fill:#febe40}.st4{fill:#444b66}</style><path d="M470.8 102.2c-.1 5.8 2.2 11 6 14.8 3.7 3.7 8.9 6 14.6 6H508c2.2 0 4 1.8 4 4v257.8c0 2.2-1.8 4-4 4h-16.1c-11.4 0-21 9-21.1 20.3-.1 5.8 2.2 11 6 14.8 3.7 3.7 8.9 6 14.6 6H508c2.2 0 4 1.8 4 4V508c0 2.2-1.8 4-4 4H4c-2.2 0-4-1.8-4-4v-77.9h20.6c5.7 0 10.8-2.3 14.6-6 3.8-3.8 6.1-9 6-14.8-.1-11.4-9.8-20.3-21.1-20.3H4c-2.2 0-4-1.8-4-4V127.1c0-2.2 1.8-4 4-4h16.6c5.7 0 10.8-2.3 14.6-6 3.8-3.8 6.1-9 6-14.8C41.1 90.9 31.4 82 20.1 82H4c-2.2 0-4-1.8-4-4V4c0-2.2 1.8-4 4-4h504c2.2 0 4 1.8 4 4v73.9c0 2.2-1.8 4-4 4h-16.1c-11.3 0-21 9-21.1 20.3z" fill="#667eea"/><circle class="st1" cx="42.2" cy="39.7" r="15.5"/><circle class="st1" cx="469.8" cy="39.7" r="15.5"/><circle class="st1" cx="42.2" cy="473.4" r="15.5"/><circle class="st1" cx="469.8" cy="473.4" r="15.5"/><path class="st2" d="M388.5 30.9h-265c-2.2 0-4-1.8-4-4V0h273v26.9c0 2.2-1.8 4-4 4z"/><path class="st3" d="M388.5 30.9h-26.9V0h30.9v26.9c0 2.2-1.8 4-4 4z"/><path class="st2" d="M392.5 512h-273v-26.9c0-2.2 1.8-4 4-4h265c2.2 0 4 1.8 4 4V512z"/><path class="st3" d="M392.5 512h-30.9v-30.9h26.9c2.2 0 4 1.8 4 4V512z"/><path class="st1" d="M110.7 98.7c-4.1 0-7.5-3.4-7.5-7.5V70.6c0-4.1 3.4-7.5 7.5-7.5s7.5 3.4 7.5 7.5v20.6c0 4.1-3.3 7.5-7.5 7.5zm32.3 0c-4.1 0-7.5-3.4-7.5-7.5V70.6c0-4.1 3.4-7.5 7.5-7.5s7.5 3.4 7.5 7.5v20.6c0 4.1-3.3 7.5-7.5 7.5zm32.3 0c-4.1 0-7.5-3.4-7.5-7.5V70.6c0-4.1 3.4-7.5 7.5-7.5s7.5 3.4 7.5 7.5v20.6c0 4.1-3.4 7.5-7.5 7.5zm32.3 0c-4.1 0-7.5-3.4-7.5-7.5V70.6c0-4.1 3.4-7.5 7.5-7.5s7.5 3.4 7.5 7.5v20.6c0 4.1-3.4 7.5-7.5 7.5zm32.3 0c-4.1 0-7.5-3.4-7.5-7.5V70.6c0-4.1 3.4-7.5 7.5-7.5s7.5 3.4 7.5 7.5v20.6c0 4.1-3.4 7.5-7.5 7.5zm32.2 0c-4.1 0-7.5-3.4-7.5-7.5V70.6c0-4.1 3.4-7.5 7.5-7.5s7.5 3.4 7.5 7.5v20.6c0 4.1-3.3 7.5-7.5 7.5zm32.3 0c-4.1 0-7.5-3.4-7.5-7.5V70.6c0-4.1 3.4-7.5 7.5-7.5s7.5 3.4 7.5 7.5v20.6c0 4.1-3.3 7.5-7.5 7.5zm32.3 0c-4.1 0-7.5-3.4-7.5-7.5V70.6c0-4.1 3.4-7.5 7.5-7.5s7.5 3.4 7.5 7.5v20.6c0 4.1-3.4 7.5-7.5 7.5zm32.3 0c-4.1 0-7.5-3.4-7.5-7.5V70.6c0-4.1 3.4-7.5 7.5-7.5s7.5 3.4 7.5 7.5v20.6c0 4.1-3.4 7.5-7.5 7.5zm32.3 0c-4.1 0-7.5-3.4-7.5-7.5V70.6c0-4.1 3.4-7.5 7.5-7.5s7.5 3.4 7.5 7.5v20.6c0 4.1-3.4 7.5-7.5 7.5zM110.7 448.9c-4.1 0-7.5-3.4-7.5-7.5v-20.6c0-4.1 3.4-7.5 7.5-7.5s7.5 3.4 7.5 7.5v20.6c0 4.2-3.3 7.5-7.5 7.5zm32.3 0c-4.1 0-7.5-3.4-7.5-7.5v-20.6c0-4.1 3.4-7.5 7.5-7.5s7.5 3.4 7.5 7.5v20.6c0 4.2-3.3 7.5-7.5 7.5zm32.3 0c-4.1 0-7.5-3.4-7.5-7.5v-20.6c0-4.1 3.4-7.5 7.5-7.5s7.5 3.4 7.5 7.5v20.6c0 4.2-3.4 7.5-7.5 7.5zm32.3 0c-4.1 0-7.5-3.4-7.5-7.5v-20.6c0-4.1 3.4-7.5 7.5-7.5s7.5 3.4 7.5 7.5v20.6c0 4.2-3.4 7.5-7.5 7.5zm32.3 0c-4.1 0-7.5-3.4-7.5-7.5v-20.6c0-4.1 3.4-7.5 7.5-7.5s7.5 3.4 7.5 7.5v20.6c0 4.2-3.4 7.5-7.5 7.5zm32.2 0c-4.1 0-7.5-3.4-7.5-7.5v-20.6c0-4.1 3.4-7.5 7.5-7.5s7.5 3.4 7.5 7.5v20.6c0 4.2-3.3 7.5-7.5 7.5zm32.3 0c-4.1 0-7.5-3.4-7.5-7.5v-20.6c0-4.1 3.4-7.5 7.5-7.5s7.5 3.4 7.5 7.5v20.6c0 4.2-3.3 7.5-7.5 7.5zm32.3 0c-4.1 0-7.5-3.4-7.5-7.5v-20.6c0-4.1 3.4-7.5 7.5-7.5s7.5 3.4 7.5 7.5v20.6c0 4.2-3.4 7.5-7.5 7.5zm32.3 0c-4.1 0-7.5-3.4-7.5-7.5v-20.6c0-4.1 3.4-7.5 7.5-7.5s7.5 3.4 7.5 7.5v20.6c0 4.2-3.4 7.5-7.5 7.5zm32.3 0c-4.1 0-7.5-3.4-7.5-7.5v-20.6c0-4.1 3.4-7.5 7.5-7.5s7.5 3.4 7.5 7.5v20.6c0 4.2-3.4 7.5-7.5 7.5zM91.2 118.2H70.6c-4.1 0-7.5-3.4-7.5-7.5s3.4-7.5 7.5-7.5h20.6c4.1 0 7.5 3.4 7.5 7.5s-3.4 7.5-7.5 7.5zm0 32.3H70.6c-4.1 0-7.5-3.4-7.5-7.5s3.4-7.5 7.5-7.5h20.6c4.1 0 7.5 3.4 7.5 7.5s-3.4 7.5-7.5 7.5zm0 32.3H70.6c-4.1 0-7.5-3.4-7.5-7.5s3.4-7.5 7.5-7.5h20.6c4.1 0 7.5 3.4 7.5 7.5s-3.4 7.5-7.5 7.5zm0 32.3H70.6c-4.1 0-7.5-3.4-7.5-7.5s3.4-7.5 7.5-7.5h20.6c4.1 0 7.5 3.4 7.5 7.5s-3.4 7.5-7.5 7.5zm0 32.3H70.6c-4.1 0-7.5-3.4-7.5-7.5s3.4-7.5 7.5-7.5h20.6c4.1 0 7.5 3.4 7.5 7.5s-3.4 7.5-7.5 7.5zm0 32.2H70.6c-4.1 0-7.5-3.4-7.5-7.5s3.4-7.5 7.5-7.5h20.6c4.1 0 7.5 3.4 7.5 7.5s-3.4 7.5-7.5 7.5zm0 32.3H70.6c-4.1 0-7.5-3.4-7.5-7.5s3.4-7.5 7.5-7.5h20.6c4.1 0 7.5 3.4 7.5 7.5s-3.4 7.5-7.5 7.5zm0 32.3H70.6c-4.1 0-7.5-3.4-7.5-7.5s3.4-7.5 7.5-7.5h20.6c4.1 0 7.5 3.4 7.5 7.5s-3.4 7.5-7.5 7.5zm0 32.3H70.6c-4.1 0-7.5-3.4-7.5-7.5s3.4-7.5 7.5-7.5h20.6c4.1 0 7.5 3.4 7.5 7.5s-3.4 7.5-7.5 7.5zm0 32.3H70.6c-4.1 0-7.5-3.4-7.5-7.5s3.4-7.5 7.5-7.5h20.6c4.1 0 7.5 3.4 7.5 7.5s-3.4 7.5-7.5 7.5zm350.2-290.6h-20.6c-4.1 0-7.5-3.4-7.5-7.5s3.4-7.5 7.5-7.5h20.6c4.1 0 7.5 3.4 7.5 7.5s-3.3 7.5-7.5 7.5zm0 32.3h-20.6c-4.1 0-7.5-3.4-7.5-7.5s3.4-7.5 7.5-7.5h20.6c4.1 0 7.5 3.4 7.5 7.5s-3.3 7.5-7.5 7.5zm0 32.3h-20.6c-4.1 0-7.5-3.4-7.5-7.5s3.4-7.5 7.5-7.5h20.6c4.1 0 7.5 3.4 7.5 7.5s-3.3 7.5-7.5 7.5zm0 32.3h-20.6c-4.1 0-7.5-3.4-7.5-7.5s3.4-7.5 7.5-7.5h20.6c4.1 0 7.5 3.4 7.5 7.5s-3.3 7.5-7.5 7.5zm0 32.3h-20.6c-4.1 0-7.5-3.4-7.5-7.5s3.4-7.5 7.5-7.5h20.6c4.1 0 7.5 3.4 7.5 7.5s-3.3 7.5-7.5 7.5zm0 32.2h-20.6c-4.1 0-7.5-3.4-7.5-7.5s3.4-7.5 7.5-7.5h20.6c4.1 0 7.5 3.4 7.5 7.5s-3.3 7.5-7.5 7.5zm0 32.3h-20.6c-4.1 0-7.5-3.4-7.5-7.5s3.4-7.5 7.5-7.5h20.6c4.1 0 7.5 3.4 7.5 7.5s-3.3 7.5-7.5 7.5zm0 32.3h-20.6c-4.1 0-7.5-3.4-7.5-7.5s3.4-7.5 7.5-7.5h20.6c4.1 0 7.5 3.4 7.5 7.5s-3.3 7.5-7.5 7.5zm0 32.3h-20.6c-4.1 0-7.5-3.4-7.5-7.5s3.4-7.5 7.5-7.5h20.6c4.1 0 7.5 3.4 7.5 7.5s-3.3 7.5-7.5 7.5zm0 32.3h-20.6c-4.1 0-7.5-3.4-7.5-7.5s3.4-7.5 7.5-7.5h20.6c4.1 0 7.5 3.4 7.5 7.5s-3.3 7.5-7.5 7.5z"/><path class="st4" d="M91.2 416.8V95.2c0-2.2 1.8-4 4-4h321.7c2.2 0 4 1.8 4 4v321.7c0 2.2-1.8 4-4 4H95.2c-2.2-.1-4-1.9-4-4.1z"/><path d="M389.9 420.8V91.2h26.9c2.2 0 4 1.8 4 4v321.7c0 2.2-1.8 4-4 4l-26.9-.1z" fill="#3d435c"/><path d="M385.9 389.9H126.1c-2.2 0-4-1.8-4-4V126.1c0-2.2 1.8-4 4-4h259.8c2.2 0 4 1.8 4 4v259.8c0 2.2-1.8 4-4 4z" fill="#cbdae0"/><path d="M385.9 389.9H359V122.1h26.9c2.2 0 4 1.8 4 4v259.8c0 2.2-1.8 4-4 4z" fill="#a8b5ba"/><path d="M138 343.4v27.9c0 2.2 1.8 4 4 4h30.5c3.6 0 5.4-4.5 2.7-7l-30.5-27.9c-2.5-2.3-6.7-.5-6.7 3z" fill="#6e6b87"/><path class="st4" d="M249.2 206.2h-26.8c-4.1 0-7.5-3.4-7.5-7.5v-47.4c0-4.1 3.4-7.5 7.5-7.5h26.8c4.1 0 7.5 3.4 7.5 7.5s-3.4 7.5-7.5 7.5h-19.3v32.4h19.3c4.1 0 7.5 3.4 7.5 7.5s-3.3 7.5-7.5 7.5zm19.4 0c-4.1 0-7.5-3.4-7.5-7.5v-47.4c0-4.1 3.4-7.5 7.5-7.5h26.8c4.1 0 7.5 3.4 7.5 7.5v24c0 4.1-3.4 7.5-7.5 7.5h-19.3v15.9c0 4.1-3.4 7.5-7.5 7.5zm7.5-38.4h11.8v-9h-11.8v9zm65.4 38.4h-26.8c-4.1 0-7.5-3.4-7.5-7.5v-47.4c0-4.1 3.4-7.5 7.5-7.5s7.5 3.4 7.5 7.5v39.9H334v-39.9c0-4.1 3.4-7.5 7.5-7.5s7.5 3.4 7.5 7.5v47.4c0 4.1-3.4 7.5-7.5 7.5z"/></svg>