<svg version="1.1" id="Flat" xmlns="http://www.w3.org/2000/svg" x="0" y="0" viewBox="0 0 512 512" xml:space="preserve"><style>.st0{fill:#cacac9}.st2{fill:#5a67d8}.st5{fill:#c3dafe}</style><path class="st0" d="M312 488H200l4.4-48 3.2-35.6h96.8l3.2 35.6 4.4 48z"/><path d="M307.6 440H204.4l3.2-35.6h96.8l3.2 35.6z" fill="#b3b1b3"/><path class="st2" d="M56 56h400c13.3 0 24 10.7 24 24v320c0 13.3-10.7 24-24 24H56c-13.3 0-24-10.7-24-24V80c0-13.3 10.7-24 24-24z"/><path class="st0" d="M32 360h448v40c0 13.3-10.7 24-24 24H56c-13.3 0-24-10.7-24-24v-40zm448-240H32V80c0-13.3 10.7-24 24-24h400c13.3 0 24 10.7 24 24v40z"/><path d="M248 384h16v16h-16v-16zM56 80h16v16H56V80zm32 0h16v16H88V80zm32 0h16v16h-16V80z" fill="#a0aec0"/><path class="st0" d="M168 480h176v16H168v-16z"/><path d="M48 136h416v208H48V136z" fill="#667eea"/><path class="st5" d="M272 288h32v32h-32v-32zm0-64h32v32h-32v-32zm64 64h32v32h-32v-32zm64 0h32v32h-32v-32z"/><path d="M435.8 230.1L400 248l-35.8-17.9c-27.1-13.6-44.2-41.3-44.2-71.6V48l80-24 80 24v110.6c0 30.3-17.1 58-44.2 71.5z" fill="#e3e4e2"/><path class="st2" d="M378.5 201.5c-16.3-8.1-26.5-24.8-26.5-42.9V71.8l48-14.4 48 14.4v86.7c0 18.2-10.3 34.8-26.5 42.9L400 212.2l-21.5-10.7z"/><path d="M232 240c0 44.2-35.9 80-80.1 80-11.3 0-22.5-2.4-32.9-7.1-40.3-18.2-58.2-65.6-40-105.9 13-28.6 41.6-47 73-47 2.7 0 5.4.1 8 .4 40.9 4.1 72 38.5 72 79.6z" fill="#4c51bf"/><path class="st5" d="M192 224l-8 24-24 8-24-16h-16l-8 16-33.1 16.5c-18-40.4.2-87.7 40.6-105.6 10.2-4.6 21.3-6.9 32.5-6.9 2.7 0 5.4.1 8 .4V192l24 16 8 16zm13.7 75.3c-23.6 21.3-57.6 26.7-86.6 13.6L144 288l32-8 24 8 5.7 11.3z"/><path d="M400 128h48v30.6c0 18.2-10.3 34.8-26.5 42.9L400 212.2V128zm0-70.6V128h-48V71.8l48-14.4z" fill="#7f9cf5"/></svg>