<svg version="1.1" id="Layer_1" xmlns="http://www.w3.org/2000/svg" x="0" y="0" viewBox="0 0 512 512" xml:space="preserve"><style>.st0{fill:#a3bffa}.st1{fill:#667eea}.st2{fill:#fcbc04}.st3{fill:#f9e109}.st4{fill:#cbd5e0}.st5{fill:#a0aec0}</style><g id="Flat"><g id="Color"><path class="st0" d="M360 360v-80h-38c-2.5-8.2-5.8-16.1-9.8-23.6l26.9-26.9-56.6-56.6-26.9 26.9c-7.5-4-15.4-7.3-23.6-9.8v-38h-80v38c-8.2 2.5-16.1 5.8-23.6 9.8l-26.9-26.9-56.6 56.6 26.9 26.9c-4 7.5-7.3 15.4-9.8 23.6H24v80h38c2.5 8.2 5.8 16.1 9.8 23.6l-26.9 26.9 56.6 56.6 26.9-26.9c7.5 4 15.4 7.3 23.6 9.8v38h80v-38c8.2-2.5 16.1-5.8 23.6-9.8l26.9 26.9 56.6-56.6-26.9-26.9c4-7.5 7.3-15.4 9.8-23.6h38zm-160 40c-44.2 0-80-35.8-80-80s35.8-80 80-80 80 35.8 80 80-35.8 80-80 80z"/><path class="st1" d="M296 408c-23.6 0-46.9-4.3-68.9-12.8-41.4 15.1-87.2-6.3-102.3-47.7-5.7-15.6-6.3-32.5-2-48.5-17.8-37.3-23.2-79.4-15.2-120l-6.1-6.1-56.6 56.6 26.9 26.9c-4 7.5-7.3 15.4-9.8 23.6H24v80h38c2.5 8.2 5.8 16.1 9.8 23.6l-26.9 26.9 56.6 56.6 26.9-26.9c7.5 4 15.4 7.3 23.6 9.8v38h80v-38c8.2-2.5 16.1-5.8 23.6-9.8l26.9 26.9 56.6-56.6-6.1-6.1c-12.2 2.4-24.6 3.6-37 3.6z"/><path class="st0" d="M488 152v-48h-27.7c-1.4-4.5-3.2-8.8-5.4-13l19.6-19.6-33.9-33.9L421 57.1c-4.2-2.2-8.5-4-13-5.4V24h-48v27.7c-4.5 1.4-8.8 3.2-13 5.4l-19.6-19.6-33.9 33.9L313.1 91c-2.2 4.2-4 8.5-5.4 13H280v48h27.7c1.4 4.5 3.2 8.8 5.4 13l-19.6 19.6 33.9 33.9 19.6-19.6c4.2 2.2 8.5 4 13 5.4V232h48v-27.7c4.5-1.4 8.8-3.2 13-5.4l19.6 19.6 33.9-33.9-19.6-19.6c2.2-4.2 4-8.5 5.4-13H488zm-104 16c-22.1 0-40-17.9-40-40s17.9-40 40-40 40 17.9 40 40-17.9 40-40 40z"/><path class="st1" d="M413.6 154.7c-14.5 16.6-39.7 18.3-56.3 3.9s-18.3-39.7-3.9-56.3c.4-.5.9-1 1.3-1.5-9.7-16.5-15.9-34.8-18-53.9l-9.4-9.4-33.9 33.9L313.1 91c-2.2 4.2-4 8.5-5.4 13H280v48h27.7c1.4 4.5 3.2 8.8 5.4 13l-19.6 19.6 33.9 33.9 19.6-19.6c4.2 2.2 8.5 4 13 5.4V232h48v-27.7c4.5-1.4 8.8-3.2 13-5.4l19.6 19.6 33.9-33.9-17.4-17.4c-15.1-1.7-29.8-5.9-43.5-12.5z"/><path class="st2" d="M280 328v-32h-32v32h-56v32h152v-32h-64z"/><path class="st3" d="M280 328v-32h-16v32c0 8.8 7.2 16 16 16h64v-16h-64z"/><path class="st4" d="M152 168h224v64H152v-64z"/><path class="st5" d="M184 168h-32v64h224v-32H216c-17.7 0-32-14.3-32-32z"/><circle class="st0" cx="272" cy="200" r="8"/><circle class="st0" cx="304" cy="200" r="8"/><circle class="st0" cx="336" cy="200" r="8"/><path class="st0" d="M232 208h-48c-4.4 0-8-3.6-8-8s3.6-8 8-8h48c4.4 0 8 3.6 8 8s-3.6 8-8 8z"/><path class="st1" d="M272 208c4.4 0 8-3.6 8-8h-16c0 4.4 3.6 8 8 8zm32 0c4.4 0 8-3.6 8-8h-16c0 4.4 3.6 8 8 8zm32 0c4.4 0 8-3.6 8-8h-16c0 4.4 3.6 8 8 8zm-160-8c0 4.4 3.6 8 8 8h48c4.4 0 8-3.6 8-8h-24c-7.7 0-15.2-2.9-21-8h-11c-4.4 0-8 3.6-8 8z"/><path class="st4" d="M152 104h224v64H152v-64z"/><path class="st5" d="M184 104h-32v64h224v-32H216c-17.7 0-32-14.3-32-32z"/><circle class="st0" cx="272" cy="136" r="8"/><circle class="st0" cx="304" cy="136" r="8"/><circle class="st0" cx="336" cy="136" r="8"/><path class="st0" d="M232 144h-48c-4.4 0-8-3.6-8-8s3.6-8 8-8h48c4.4 0 8 3.6 8 8s-3.6 8-8 8z"/><path class="st1" d="M272 144c4.4 0 8-3.6 8-8h-16c0 4.4 3.6 8 8 8zm32 0c4.4 0 8-3.6 8-8h-16c0 4.4 3.6 8 8 8zm32 0c4.4 0 8-3.6 8-8h-16c0 4.4 3.6 8 8 8zm-160-8c0 4.4 3.6 8 8 8h48c4.4 0 8-3.6 8-8h-24c-7.7 0-15.2-2.9-21-8h-11c-4.4 0-8 3.6-8 8z"/><path class="st4" d="M152 232h224v64H152v-64z"/><path class="st5" d="M184 232h-32v64h224v-32H216c-17.7 0-32-14.3-32-32z"/><circle class="st0" cx="272" cy="264" r="8"/><circle class="st0" cx="304" cy="264" r="8"/><circle class="st0" cx="336" cy="264" r="8"/><path class="st0" d="M232 272h-48c-4.4 0-8-3.6-8-8s3.6-8 8-8h48c4.4 0 8 3.6 8 8s-3.6 8-8 8z"/><path class="st1" d="M272 272c4.4 0 8-3.6 8-8h-16c0 4.4 3.6 8 8 8zm32 0c4.4 0 8-3.6 8-8h-16c0 4.4 3.6 8 8 8zm32 0c4.4 0 8-3.6 8-8h-16c0 4.4 3.6 8 8 8zm-160-8c0 4.4 3.6 8 8 8h48c4.4 0 8-3.6 8-8h-24c-7.7 0-15.2-2.9-21-8h-11c-4.4 0-8 3.6-8 8z"/><path class="st4" d="M96 336h96v16H96c-4.4 0-8-3.6-8-8s3.6-8 8-8zm248 0h104v16H344v-16zm112-152c4.4 0 8 3.6 8 8v144h-16V192c0-4.4 3.6-8 8-8z"/><circle class="st2" cx="456" cy="344" r="16"/><path class="st3" d="M456 328c-6.3 0-12 3.7-14.6 9.4 8-3.7 17.5-.1 21.1 7.9 1.9 4.2 1.9 9 0 13.3 8-3.7 11.6-13.2 7.9-21.2-2.5-5.7-8.2-9.4-14.4-9.4z"/></g></g></svg>