<svg version="1.1" id="Capa_1" xmlns="http://www.w3.org/2000/svg" x="0" y="0" viewBox="0 0 512 512" xml:space="preserve"><style>.st1{fill:#c3dafe}.st5{fill:#667eea}.st6{fill:#4c51bf}.st8{fill:#d6bcfa}.st9{fill:#7f9cf5}</style><path d="M418.3 2.5c-55.7-9.5-178.3 12.2-200 105-14.4 61.7-14 112.1-50.4 113-21.7.6-33-44.3-62.9-48-39-4.8-66.1 27.7-83.1 57.1-37.2 64.8-25.6 174.9 23.4 228.6 118.5 130.1 259.2-6 319.4-112.3 38.6-68.2 125.6-123.4 143.8-200.2 15.1-64.3-18.6-131-90.2-143.2z" fill="#ebf4ff"/><path class="st1" d="M450.4 110.3H61.6c-7.1 0-12.9 5.8-12.9 12.9v270.4c0 7.1 5.8 12.9 12.9 12.9h152.3l-4.9 23.9c-2 9.7-8.7 17.4-17.4 20.9-4.3 1.8-7.3 5.8-7.3 10.5v.2c0 6.2 5 11.2 11.2 11.2h121.1c6.2 0 11.2-5 11.2-11.2v-.2c0-4.7-2.9-8.7-7.3-10.5-8.7-3.6-15.4-11.2-17.4-20.9l-4.9-23.9h152.3c7.1 0 12.9-5.8 12.9-12.9V123.2c0-7.1-5.8-12.9-13-12.9z"/><path d="M195.5 453.3h121.1c6.2 0 11.2-5 11.2-11.2v-.2c0-4.7-2.9-8.7-7.3-10.5-8.7-3.6-15.4-11.2-17.4-20.9l-6.6-32.1h-80.9l-6.6 32.1c-2 9.7-8.7 17.4-17.4 20.9-4.3 1.8-7.3 5.8-7.3 10.5v.2c0 6.1 5 11.2 11.2 11.2z" fill="#a3bffa"/><path d="M301.9 404.5h-91.7l5.4-26.2h80.9l5.4 26.2z" fill="#73aacf" stroke="#7f9cf5" stroke-miterlimit="10"/><path d="M450.4 386.5H61.6c-7.1 0-12.9-5.8-12.9-12.9V103.2c0-7.1 5.8-12.9 12.9-12.9h388.9c7.1 0 12.9 5.8 12.9 12.9v270.4c0 7.1-5.8 12.9-13 12.9z" fill="#fff"/><path class="st1" d="M172.3 319.7c-26.2.7-41.6-11.9-50.3-23.8-19-26-19.6-67.7-1.4-94.8 18-26.9 49.6-46.2 88.9-54.2 36.7-7.5 77.8-4.7 112.5 7.7 38.4 13.7 70.7 37.6 93.5 69.3 21.9 30.5 33.4 65.7 33.4 102 0 3.9 3.2 7 7.2 7s7.2-3.1 7.2-7c0-39.2-12.5-77.2-36-110-24.4-34-59.1-59.7-100.3-74.4-37.3-13.3-81.2-16.3-120.5-8.2-43.1 8.8-77.9 30.2-98.1 60.3-10.2 15.3-15.7 34.9-15.5 55.4.3 20.6 6.4 40.2 17.2 55.1 8.8 12.1 27.3 29.8 59.9 29.8 7.3 0 15.4-.9 24.2-2.9 19.5-4.5 38.4-18.2 47.1-34 6-10.9 7-22.1 2.9-32.7-6-15.6-24.7-24.8-43.4-21.5-6.1 1.1-12.3 3.7-17.4 8.1v26.6h3.2c0-5.4 1.6-18.2 16.8-20.9 1.7-.3 3.4-.4 5.1-.4 10.8 0 19.5 6.1 22.2 13.1 2.6 6.7 1.9 13.9-2.1 21.2-6.7 12.3-22.2 23.3-37.7 26.9-1.5.3-2.9.6-4.3.9l-14.3 1.4z"/><path class="st5" d="M239.5 117.9c-4 0-7.2 3.1-7.2 7V228H93c-4 0-7.2 3.1-7.2 7s3.2 7 7.2 7h79.7v88.1c0 4 3.1 7.2 7 7.2s7-3.2 7-7.2V242h45.6v95.3c0 3.9 3.2 7 7.2 7s7.2-3.1 7.2-7V124.9c0-3.9-3.2-7-7.2-7z"/><path class="st5" d="M93 90.3H61.6c-7.1 0-12.9 5.8-12.9 12.9v270.4c0 7.1 5.8 12.9 12.9 12.9H93V90.3z"/><path class="st6" d="M463.4 128.8v-25.6c0-7.1-5.8-12.9-12.9-12.9H61.6c-7.1 0-12.9 5.8-12.9 12.9v25.6h414.7z"/><path class="st1" d="M48.6 333.7v39.9c0 7.1 5.8 12.9 12.9 12.9h388.9c7.1 0 12.9-5.8 12.9-12.9v-39.9H48.6z"/><path d="M450.4 85.3H61.6c-9.9 0-17.9 8-17.9 17.9v196.5c0 2.8 2.2 5 5 5s5-2.2 5-5V103.2c0-4.4 3.6-7.9 7.9-7.9h388.9c4.4 0 7.9 3.6 7.9 7.9v225.5H48.6c-2.8 0-5 2.2-5 5v39.9c0 9.9 8 17.9 17.9 17.9h146.1l-3.7 17.9c-1.6 7.8-7 14.3-14.4 17.3h-.1c-6.2 2.6-10.3 8.5-10.3 15.1v.2c0 8.9 7.3 16.2 16.2 16.2h63.2c2.8 0 5-2.2 5-5s-2.2-5-5-5h-63.2c-3.4 0-6.2-2.8-6.2-6.2v-.2c0-2.3 1.3-4.3 3.4-5.5h126.7c2.1 1.1 3.4 3.2 3.4 5.5v.2c0 3.4-2.8 6.2-6.2 6.2h-23.9c-2.8 0-5 2.2-5 5s2.2 5 5 5h23.9c8.9 0 16.2-7.3 16.2-16.2v-.2c0-6.6-4-12.5-10.3-15.1h-.1c-7.4-3-12.8-9.5-14.4-17.3l-3.7-17.9h146.1c9.9 0 17.9-8 17.9-17.9V103.2c.3-9.9-7.8-17.9-17.7-17.9zM298.2 411.4c1.1 5.6 3.7 10.7 7.2 14.9h-98.8c3.5-4.2 6.1-9.3 7.2-14.9l4.1-20H294l4.2 20zm160.2-37.8c0 4.4-3.6 7.9-7.9 7.9H61.6c-4.4 0-7.9-3.6-7.9-7.9v-34.9h404.7v34.9z" fill="#434190"/><path class="st8" d="M137.7 448.4c-2.8 0-5-2.2-5-5 0-3.3-2.7-6-6-6-2.8 0-5-2.2-5-5s2.2-5 5-5c3.3 0 6-2.7 6-6 0-2.8 2.2-5 5-5s5 2.2 5 5c0 3.3 2.7 6 6 6 2.8 0 5 2.2 5 5s-2.2 5-5 5c-3.3 0-6 2.7-6 6 0 2.7-2.2 5-5 5z"/><path class="st5" d="M81.8 469.3c-2.8 0-5-2.2-5-5 0-3.3-2.7-6-6-6-2.8 0-5-2.2-5-5s2.2-5 5-5c3.3 0 6-2.7 6-6 0-2.8 2.2-5 5-5s5 2.2 5 5c0 3.3 2.7 6 6 6 2.8 0 5 2.2 5 5s-2.2 5-5 5c-3.3 0-6 2.7-6 6 0 2.7-2.2 5-5 5zM198.7 64.7c-1.3 0-2.6-.5-3.5-1.5-2-2-2-5.1 0-7.1l10-10c2-2 5.1-2 7.1 0s2 5.1 0 7.1l-10 10c-1.1 1-2.4 1.5-3.6 1.5zm183.4 383.9c-1.3 0-2.6-.5-3.5-1.5-2-2-2-5.1 0-7.1l10-10c2-2 5.1-2 7.1 0s2 5.1 0 7.1l-10 10c-1.1 1-2.3 1.5-3.6 1.5z"/><path class="st9" d="M387.1 202.5h-53.3c-2.8 0-5-2.2-5-5v-36.6c0-2.8 2.2-5 5-5h53.3c2.8 0 5 2.2 5 5v36.6c0 2.8-2.3 5-5 5z"/><path class="st6" d="M392.1 173h-63.3v-12.1c0-2.8 2.2-5 5-5h53.3c2.8 0 5 2.2 5 5V173z"/><path class="st9" d="M387.1 294.1h-53.3c-2.8 0-5-2.2-5-5v-81.6c0-2.8 2.2-5 5-5h53.3c2.8 0 5 2.2 5 5v81.6c0 2.7-2.3 5-5 5z"/><path class="st6" d="M392.1 219.6h-63.3v-12.1c0-2.8 2.2-5 5-5h53.3c2.8 0 5 2.2 5 5v12.1zm-125 26.7l5.2 15.7c.8 2.4 3.9 3.1 5.7 1.3l10.5-10.5c1.8-1.8 1.1-4.9-1.3-5.7l-15.7-5.2c-2.8-.8-5.3 1.7-4.4 4.4z"/><path d="M136.5 218.5c-2.8 0-5-2.2-5-5v-.1c0-2.8 2.2-5 5-5s5 2.2 5 5v.1c0 2.7-2.3 5-5 5zm14.6 0c-2.8 0-5-2.2-5-5v-.1c0-2.8 2.2-5 5-5s5 2.2 5 5v.1c0 2.7-2.3 5-5 5zM257 162.2c0-2.8 2.2-5 5-5h.1c2.8 0 5 2.2 5 5s-2.2 5-5 5h-.1c-2.8 0-5-2.3-5-5zm0 14.6c0-2.8 2.2-5 5-5h.1c2.8 0 5 2.2 5 5s-2.2 5-5 5h-.1c-2.8 0-5-2.3-5-5z" fill="#5a67d8"/><path class="st8" d="M267.1 65.7c-2.8 0-5-2.2-5-5 0-3.3-2.7-6-6-6-2.8 0-5-2.2-5-5s2.2-5 5-5c3.3 0 6-2.7 6-6 0-2.8 2.2-5 5-5s5 2.2 5 5c0 3.3 2.7 6 6 6 2.8 0 5 2.2 5 5s-2.2 5-5 5c-3.3 0-6 2.7-6 6 0 2.8-2.2 5-5 5z"/></svg>